<svg xmlns="http://www.w3.org/2000/svg" xmlns:xlink="http://www.w3.org/1999/xlink" contentStyleType="text/css" data-diagram-type="CLASS" height="738px" preserveAspectRatio="none" style="width:766px;height:738px;background:#FFFFFF;" version="1.1" viewBox="0 0 766 738" width="766.5px" zoomAndPan="magnify"><title>UML Class Diagram for FinancePro+ Client Management</title><defs/><g><g class="title" data-source-line="2"><text fill="#000000" font-family="sans-serif" font-size="7" font-weight="bold" lengthAdjust="spacing" textLength="187.291" x="286.1495" y="12.5537">UML Class Diagram for FinancePro+ Client Management</text></g><!--cluster seedu--><g class="cluster" data-entity="seedu" data-source-line="12" data-uid="ent0004" id="cluster_seedu"><path d="M4.25,22.8174 L24.981,22.8174 A1.875,1.875 0 0 1 26.231,24.0674 L29.731,35.1279 L579.25,35.1279 A1.25,1.25 0 0 1 580.5,36.3779 L580.5,733.3174 A1.25,1.25 0 0 1 579.25,734.5674 L4.25,734.5674 A1.25,1.25 0 0 1 3,733.3174 L3,24.0674 A1.25,1.25 0 0 1 4.25,22.8174" fill="none" style="stroke:#000000;stroke-width:0.75;"/><line style="stroke:#000000;stroke-width:0.75;" x1="3" x2="29.731" y1="35.1279" y2="35.1279"/><text fill="#000000" font-family="sans-serif" font-size="7" font-weight="bold" lengthAdjust="spacing" textLength="20.231" x="5" y="31.3711">seedu</text></g><!--cluster duke--><g class="cluster" data-entity="duke" data-source-line="12" data-uid="ent0005" id="cluster_duke"><path d="M16.25,45.3174 L33.0879,45.3174 A1.875,1.875 0 0 1 34.3379,46.5674 L37.8379,57.6279 L567.25,57.6279 A1.25,1.25 0 0 1 568.5,58.8779 L568.5,721.3174 A1.25,1.25 0 0 1 567.25,722.5674 L16.25,722.5674 A1.25,1.25 0 0 1 15,721.3174 L15,46.5674 A1.25,1.25 0 0 1 16.25,45.3174" fill="none" style="stroke:#000000;stroke-width:0.75;"/><line style="stroke:#000000;stroke-width:0.75;" x1="15" x2="37.8379" y1="57.6279" y2="57.6279"/><text fill="#000000" font-family="sans-serif" font-size="7" font-weight="bold" lengthAdjust="spacing" textLength="16.3379" x="17" y="53.8711">duke</text></g><!--cluster container--><g class="cluster" data-entity="container" data-source-line="11" data-uid="ent0002" id="cluster_container"><path d="M161.25,67.8174 L193.2568,67.8174 A1.875,1.875 0 0 1 194.5068,69.0674 L198.0068,80.1279 L555.25,80.1279 A1.25,1.25 0 0 1 556.5,81.3779 L556.5,170.0674 A1.25,1.25 0 0 1 555.25,171.3174 L161.25,171.3174 A1.25,1.25 0 0 1 160,170.0674 L160,69.0674 A1.25,1.25 0 0 1 161.25,67.8174" fill="none" style="stroke:#000000;stroke-width:0.75;"/><line style="stroke:#000000;stroke-width:0.75;" x1="160" x2="198.0068" y1="80.1279" y2="80.1279"/><text fill="#000000" font-family="sans-serif" font-size="7" font-weight="bold" lengthAdjust="spacing" textLength="31.5068" x="162" y="76.3711">container</text></g><!--cluster client--><g class="cluster" data-entity="client" data-source-line="27" data-uid="ent0007" id="cluster_client"><path d="M190.25,187.8174 L209.0327,187.8174 A1.875,1.875 0 0 1 210.2827,189.0674 L213.7827,200.1279 L555.25,200.1279 A1.25,1.25 0 0 1 556.5,201.3779 L556.5,474.0674 A1.25,1.25 0 0 1 555.25,475.3174 L190.25,475.3174 A1.25,1.25 0 0 1 189,474.0674 L189,189.0674 A1.25,1.25 0 0 1 190.25,187.8174" fill="none" style="stroke:#000000;stroke-width:0.75;"/><line style="stroke:#000000;stroke-width:0.75;" x1="189" x2="213.7827" y1="200.1279" y2="200.1279"/><text fill="#000000" font-family="sans-serif" font-size="7" font-weight="bold" lengthAdjust="spacing" textLength="18.2827" x="191" y="196.3711">client</text></g><!--cluster exception--><g class="cluster" data-entity="exception" data-source-line="66" data-uid="ent0011" id="cluster_exception"><path d="M333.75,500.8174 L366.9258,500.8174 A1.875,1.875 0 0 1 368.1758,502.0674 L371.6758,513.1279 L430.25,513.1279 A1.25,1.25 0 0 1 431.5,514.3779 L431.5,548.5674 A1.25,1.25 0 0 1 430.25,549.8174 L333.75,549.8174 A1.25,1.25 0 0 1 332.5,548.5674 L332.5,502.0674 A1.25,1.25 0 0 1 333.75,500.8174" fill="none" style="stroke:#000000;stroke-width:0.75;"/><line style="stroke:#000000;stroke-width:0.75;" x1="332.5" x2="371.6758" y1="513.1279" y2="513.1279"/><text fill="#000000" font-family="sans-serif" font-size="7" font-weight="bold" lengthAdjust="spacing" textLength="32.6758" x="334.5" y="509.3711">exception</text></g><!--cluster policy--><g class="cluster" data-entity="policy" data-source-line="72" data-uid="ent0013" id="cluster_policy"><path d="M28.25,379.8174 L48.9775,379.8174 A1.875,1.875 0 0 1 50.2275,381.0674 L53.7275,392.1279 L175.75,392.1279 A1.25,1.25 0 0 1 177,393.3779 L177,709.3174 A1.25,1.25 0 0 1 175.75,710.5674 L28.25,710.5674 A1.25,1.25 0 0 1 27,709.3174 L27,381.0674 A1.25,1.25 0 0 1 28.25,379.8174" fill="none" style="stroke:#000000;stroke-width:0.75;"/><line style="stroke:#000000;stroke-width:0.75;" x1="27" x2="53.7275" y1="392.1279" y2="392.1279"/><text fill="#000000" font-family="sans-serif" font-size="7" font-weight="bold" lengthAdjust="spacing" textLength="20.2275" x="29" y="388.3711">policy</text></g><!--class ListContainer--><g class="entity" data-entity="ListContainer" data-source-line="12" data-uid="ent0003" id="entity_ListContainer"><rect fill="#F1F1F1" height="76.8438" rx="1.25" ry="1.25" style="stroke:#181818;stroke-width:0.25;" width="183.2217" x="365.5" y="86.3174"/><text fill="#000000" font-family="sans-serif" font-size="6" font-style="italic" lengthAdjust="spacing" textLength="29.6865" x="442.2676" y="95.292">&#171;interface&#187;</text><text fill="#000000" font-family="sans-serif" font-size="7" font-style="italic" lengthAdjust="spacing" textLength="41.2446" x="436.4885" y="104.3516">ListContainer</text><line style="stroke:#181818;stroke-width:0.25;" x1="366" x2="548.2217" y1="108.6084" y2="108.6084"/><line style="stroke:#181818;stroke-width:0.25;" x1="366" x2="548.2217" y1="112.6084" y2="112.6084"/><text fill="#000000" font-family="sans-serif" font-size="7" lengthAdjust="spacing" textLength="89.291" x="368.5" y="122.1621">+addItem(arguments: String)</text><text fill="#000000" font-family="sans-serif" font-size="7" lengthAdjust="spacing" textLength="177.2217" x="368.5" y="131.4727">+addItem(arguments: String, listContainer: ListContainer)</text><text fill="#000000" font-family="sans-serif" font-size="7" lengthAdjust="spacing" textLength="96.6841" x="368.5" y="140.7832">+deleteItem(arguments: String)</text><text fill="#000000" font-family="sans-serif" font-size="7" lengthAdjust="spacing" textLength="34.4189" x="368.5" y="150.0938">+listItems()</text><text fill="#000000" font-family="sans-serif" font-size="7" lengthAdjust="spacing" textLength="130.9253" x="368.5" y="159.4043">+checkDeleteIndex(arguments: String): int</text></g><!--class LookUpTable--><g class="entity" data-entity="LookUpTable" data-source-line="20" data-uid="ent0006" id="entity_LookUpTable"><rect fill="#F1F1F1" height="50.2422" rx="1.25" ry="1.25" style="stroke:#181818;stroke-width:0.25;" width="179.3218" x="168.25" y="99.8174"/><text fill="#000000" font-family="sans-serif" font-size="7" lengthAdjust="spacing" textLength="41.6377" x="237.092" y="109.8711">LookUpTable</text><line style="stroke:#181818;stroke-width:0.25;" x1="168.75" x2="347.0718" y1="114.1279" y2="114.1279"/><text fill="#000000" font-family="sans-serif" font-size="7" lengthAdjust="spacing" textLength="121.3926" x="171.25" y="123.6816">-map: HashMap&lt;String, ListContainer&gt;</text><line style="stroke:#181818;stroke-width:0.25;" x1="168.75" x2="347.0718" y1="127.4385" y2="127.4385"/><text fill="#000000" font-family="sans-serif" font-size="7" lengthAdjust="spacing" textLength="173.3218" x="171.25" y="136.9922">+LookUpTable(clients: ClientList, policies: PolicyList, ...)</text><text fill="#000000" font-family="sans-serif" font-size="7" lengthAdjust="spacing" textLength="107.5771" x="171.25" y="146.3027">+getList(key: String): ListContainer</text></g><!--class ClientList--><g class="entity" data-entity="ClientList" data-source-line="28" data-uid="ent0008" id="entity_ClientList"><rect fill="#F1F1F1" height="106.1055" rx="1.25" ry="1.25" style="stroke:#181818;stroke-width:0.25;" width="220.1768" x="197" y="206.3174"/><text fill="#000000" font-family="sans-serif" font-size="7" lengthAdjust="spacing" textLength="28.7896" x="292.6936" y="216.3711">ClientList</text><line style="stroke:#181818;stroke-width:0.25;" x1="197.5" x2="416.6768" y1="220.6279" y2="220.6279"/><text fill="#000000" font-family="sans-serif" font-size="7" lengthAdjust="spacing" textLength="79.7515" x="200" y="230.1816">-clients: ArrayList&lt;Client&gt;</text><line style="stroke:#181818;stroke-width:0.5;" x1="197.5" x2="416.6768" y1="233.9385" y2="233.9385"/><text fill="#000000" font-family="sans-serif" font-size="7" lengthAdjust="spacing" textLength="37.5396" x="200" y="243.4922">+ClientList()</text><text fill="#000000" font-family="sans-serif" font-size="7" lengthAdjust="spacing" textLength="76.4531" x="200" y="252.8027">+addClient(client: Client)</text><text fill="#000000" font-family="sans-serif" font-size="7" lengthAdjust="spacing" textLength="167.1045" x="200" y="262.1133">+addItem(arguments: String, policyList: ListContainer)</text><text fill="#000000" font-family="sans-serif" font-size="7" lengthAdjust="spacing" textLength="96.6841" x="200" y="271.4238">+deleteItem(arguments: String)</text><text fill="#000000" font-family="sans-serif" font-size="7" lengthAdjust="spacing" textLength="113.7842" x="200" y="280.7344">+findClientByNric(nric: String): Client</text><text fill="#000000" font-family="sans-serif" font-size="7" lengthAdjust="spacing" textLength="214.1768" x="200" y="290.0449">+addPolicyToClient(arguments: String, mainPolicyList: ListContainer)</text><text fill="#000000" font-family="sans-serif" font-size="7" lengthAdjust="spacing" textLength="132.4771" x="200" y="299.3555">+updatePolicyForClient(arguments: String)</text><text fill="#000000" font-family="sans-serif" font-size="7" lengthAdjust="spacing" textLength="109.1255" x="200" y="308.666">+getClientByID(args: String): Client</text></g><!--class ArchivedClientList--><g class="entity" data-entity="ArchivedClientList" data-source-line="42" data-uid="ent0009" id="entity_ArchivedClientList"><rect fill="#F1F1F1" height="59.5527" rx="1.25" ry="1.25" style="stroke:#181818;stroke-width:0.25;" width="113.7651" x="434.5" y="229.5674"/><text fill="#000000" font-family="sans-serif" font-size="7" lengthAdjust="spacing" textLength="56.0239" x="463.3706" y="239.6211">ArchivedClientList</text><line style="stroke:#181818;stroke-width:0.25;" x1="435" x2="547.7651" y1="243.8779" y2="243.8779"/><text fill="#000000" font-family="sans-serif" font-size="7" lengthAdjust="spacing" textLength="107.7651" x="437.5" y="253.4316">-archivedClients: ArrayList&lt;Client&gt;</text><line style="stroke:#181818;stroke-width:0.5;" x1="435" x2="547.7651" y1="257.1885" y2="257.1885"/><text fill="#000000" font-family="sans-serif" font-size="7" lengthAdjust="spacing" textLength="64.7739" x="437.5" y="266.7422">+ArchivedClientList()</text><text fill="#000000" font-family="sans-serif" font-size="7" lengthAdjust="spacing" textLength="87.3394" x="437.5" y="276.0527">+archiveClient(client: Client)</text><text fill="#000000" font-family="sans-serif" font-size="7" lengthAdjust="spacing" textLength="98.2358" x="437.5" y="285.3633">+restoreClient(index: int): Client</text></g><!--class Client--><g class="entity" data-entity="Client" data-source-line="51" data-uid="ent0010" id="entity_Client"><rect fill="#F1F1F1" height="115.416" rx="1.25" ry="1.25" style="stroke:#181818;stroke-width:0.25;" width="181.6563" x="197.25" y="351.8174"/><text fill="#000000" font-family="sans-serif" font-size="7" lengthAdjust="spacing" textLength="17.8965" x="279.1299" y="361.8711">Client</text><line style="stroke:#181818;stroke-width:0.25;" x1="197.75" x2="378.4063" y1="366.1279" y2="366.1279"/><text fill="#000000" font-family="sans-serif" font-size="7" lengthAdjust="spacing" textLength="42.0171" x="200.25" y="375.6816">-name: String</text><text fill="#000000" font-family="sans-serif" font-size="7" lengthAdjust="spacing" textLength="35.7861" x="200.25" y="384.9922">-nric: String</text><text fill="#000000" font-family="sans-serif" font-size="7" lengthAdjust="spacing" textLength="57.9756" x="200.25" y="394.3027">-phoneNumber: int</text><text fill="#000000" font-family="sans-serif" font-size="7" lengthAdjust="spacing" textLength="64.5757" x="200.25" y="403.6133">-policyList: PolicyList</text><line style="stroke:#181818;stroke-width:0.5;" x1="197.75" x2="378.4063" y1="407.3701" y2="407.3701"/><text fill="#000000" font-family="sans-serif" font-size="7" lengthAdjust="spacing" textLength="175.6563" x="200.25" y="416.9238">+Client(arguments: String, mainPolicyList: ListContainer)</text><text fill="#000000" font-family="sans-serif" font-size="7" lengthAdjust="spacing" text-decoration="underline" textLength="142.9736" x="200.25" y="426.2344">+parseClientDetails(clientDetails: String): Map</text><text fill="#000000" font-family="sans-serif" font-size="7" lengthAdjust="spacing" textLength="97.4565" x="200.25" y="435.5449">+addPolicy(policy: ClientPolicy)</text><text fill="#000000" font-family="sans-serif" font-size="7" lengthAdjust="spacing" textLength="126.2563" x="200.25" y="444.8555">+hasPolicy(policyName: String): boolean</text><text fill="#000000" font-family="sans-serif" font-size="7" lengthAdjust="spacing" textLength="99.3979" x="200.25" y="454.166">+getClientPolicyList(): PolicyList</text><text fill="#000000" font-family="sans-serif" font-size="7" lengthAdjust="spacing" textLength="44.1499" x="200.25" y="463.4766">+viewDetails()</text></g><!--class FinanceProPlusException--><g class="entity" data-entity="FinanceProPlusException" data-source-line="67" data-uid="ent0012" id="entity_FinanceProPlusException"><rect fill="#F1F1F1" height="22.3105" rx="1.25" ry="1.25" style="stroke:#181818;stroke-width:0.25;" width="83.1548" x="340.5" y="519.3174"/><text fill="#000000" font-family="sans-serif" font-size="7" lengthAdjust="spacing" textLength="80.1548" x="342" y="529.3711">FinanceProPlusException</text><line style="stroke:#181818;stroke-width:0.25;" x1="341" x2="423.1548" y1="533.6279" y2="533.6279"/><line style="stroke:#181818;stroke-width:0.25;" x1="341" x2="423.1548" y1="537.6279" y2="537.6279"/></g><!--class Policy--><g class="entity" data-entity="Policy" data-source-line="73" data-uid="ent0014" id="entity_Policy"><rect fill="#F1F1F1" height="31.6211" rx="1.25" ry="1.25" style="stroke:#181818;stroke-width:0.25;" width="49.5791" x="83.75" y="590.5674"/><text fill="#000000" font-family="sans-serif" font-size="7" lengthAdjust="spacing" textLength="18.6724" x="99.2034" y="600.6211">Policy</text><line style="stroke:#181818;stroke-width:0.25;" x1="84.25" x2="132.8291" y1="604.8779" y2="604.8779"/><text fill="#000000" font-family="sans-serif" font-size="7" lengthAdjust="spacing" textLength="43.5791" x="86.75" y="614.4316">#name: String</text><line style="stroke:#181818;stroke-width:0.25;" x1="84.25" x2="132.8291" y1="618.1885" y2="618.1885"/></g><!--class ClientPolicy--><g class="entity" data-entity="ClientPolicy" data-source-line="76" data-uid="ent0015" id="entity_ClientPolicy"><rect fill="#F1F1F1" height="50.2422" rx="1.25" ry="1.25" style="stroke:#181818;stroke-width:0.25;" width="100.1343" x="69" y="652.5674"/><text fill="#000000" font-family="sans-serif" font-size="7" lengthAdjust="spacing" textLength="36.5688" x="100.7827" y="662.6211">ClientPolicy</text><line style="stroke:#181818;stroke-width:0.25;" x1="69.5" x2="168.6343" y1="666.8779" y2="666.8779"/><text fill="#000000" font-family="sans-serif" font-size="7" lengthAdjust="spacing" textLength="66.1411" x="72" y="676.4316">-startDate: LocalDate</text><text fill="#000000" font-family="sans-serif" font-size="7" lengthAdjust="spacing" textLength="71.1997" x="72" y="685.7422">-expiryDate: LocalDate</text><text fill="#000000" font-family="sans-serif" font-size="7" lengthAdjust="spacing" textLength="94.1343" x="72" y="695.0527">-monthlyPremium: BigDecimal</text><line style="stroke:#181818;stroke-width:0.25;" x1="69.5" x2="168.6343" y1="698.8096" y2="698.8096"/></g><!--class PolicyList--><g class="entity" data-entity="PolicyList" data-source-line="81" data-uid="ent0016" id="entity_PolicyList"><rect fill="#F1F1F1" height="40.9316" rx="1.25" ry="1.25" style="stroke:#181818;stroke-width:0.25;" width="133.7979" x="35" y="510.0674"/><text fill="#000000" font-family="sans-serif" font-size="7" lengthAdjust="spacing" textLength="29.5654" x="87.1162" y="520.1211">PolicyList</text><line style="stroke:#181818;stroke-width:0.25;" x1="35.5" x2="168.2979" y1="524.3779" y2="524.3779"/><text fill="#000000" font-family="sans-serif" font-size="7" lengthAdjust="spacing" textLength="84.0308" x="38" y="533.9316">-policies: ArrayList&lt;Policy&gt;</text><line style="stroke:#181818;stroke-width:0.25;" x1="35.5" x2="168.2979" y1="537.6885" y2="537.6885"/><text fill="#000000" font-family="sans-serif" font-size="7" lengthAdjust="spacing" textLength="127.7979" x="38" y="547.2422">+findPolicyByName(name: String): Policy</text></g><!--class ListContainer--><g class="entity" data-entity="ListContainer" data-source-line="82" data-uid="ent0017" id="entity_ListContainer"><rect fill="#F1F1F1" height="22.3105" rx="1.25" ry="1.25" style="stroke:#181818;stroke-width:0.25;" width="44.2446" x="125" y="398.3174"/><text fill="#000000" font-family="sans-serif" font-size="7" font-style="italic" lengthAdjust="spacing" textLength="41.2446" x="126.5" y="408.3711">ListContainer</text><line style="stroke:#181818;stroke-width:0.25;" x1="125.5" x2="168.7446" y1="412.6279" y2="412.6279"/><line style="stroke:#181818;stroke-width:0.25;" x1="125.5" x2="168.7446" y1="416.6279" y2="416.6279"/></g><!--class MeetingList--><g class="entity" data-entity="MeetingList" data-source-line="88" data-uid="ent0019" id="entity_MeetingList"><rect fill="#F1F1F1" height="22.3105" rx="1.25" ry="1.25" style="stroke:#181818;stroke-width:0.25;" width="38.7964" x="657.5" y="519.3174"/><text fill="#000000" font-family="sans-serif" font-size="7" lengthAdjust="spacing" textLength="35.7964" x="659" y="529.3711">MeetingList</text><line style="stroke:#181818;stroke-width:0.25;" x1="658" x2="695.7964" y1="533.6279" y2="533.6279"/><line style="stroke:#181818;stroke-width:0.25;" x1="658" x2="695.7964" y1="537.6279" y2="537.6279"/></g><!--class ListContainer--><g class="entity" data-entity="ListContainer" data-source-line="88" data-uid="ent0020" id="entity_ListContainer"><rect fill="#F1F1F1" height="22.3105" rx="1.25" ry="1.25" style="stroke:#181818;stroke-width:0.25;" width="44.2446" x="588.5" y="398.3174"/><text fill="#000000" font-family="sans-serif" font-size="7" font-style="italic" lengthAdjust="spacing" textLength="41.2446" x="590" y="408.3711">ListContainer</text><line style="stroke:#181818;stroke-width:0.25;" x1="589" x2="632.2446" y1="412.6279" y2="412.6279"/><line style="stroke:#181818;stroke-width:0.25;" x1="589" x2="632.2446" y1="416.6279" y2="416.6279"/></g><!--class TaskList--><g class="entity" data-entity="TaskList" data-source-line="89" data-uid="ent0022" id="entity_TaskList"><rect fill="#F1F1F1" height="22.3105" rx="1.25" ry="1.25" style="stroke:#181818;stroke-width:0.25;" width="29.062" x="600" y="519.3174"/><text fill="#000000" font-family="sans-serif" font-size="7" lengthAdjust="spacing" textLength="26.062" x="601.5" y="529.3711">TaskList</text><line style="stroke:#181818;stroke-width:0.25;" x1="600.5" x2="628.562" y1="533.6279" y2="533.6279"/><line style="stroke:#181818;stroke-width:0.25;" x1="600.5" x2="628.562" y1="537.6279" y2="537.6279"/></g><!--class UserList--><g class="entity" data-entity="UserList" data-source-line="90" data-uid="ent0024" id="entity_UserList"><rect fill="#F1F1F1" height="22.3105" rx="1.25" ry="1.25" style="stroke:#181818;stroke-width:0.25;" width="28.6724" x="719.75" y="519.3174"/><text fill="#000000" font-family="sans-serif" font-size="7" lengthAdjust="spacing" textLength="25.6724" x="721.25" y="529.3711">UserList</text><line style="stroke:#181818;stroke-width:0.25;" x1="720.25" x2="747.9224" y1="533.6279" y2="533.6279"/><line style="stroke:#181818;stroke-width:0.25;" x1="720.25" x2="747.9224" y1="537.6279" y2="537.6279"/></g><!--reverse link ListContainer to PolicyList--><g class="link" data-entity-1="ListContainer" data-entity-2="PolicyList" data-source-line="82" data-uid="lnk18" id="link_ListContainer_PolicyList"><path d="M139.7651,429.3544 C132.2151,449.4894 119.105,484.4574 109.505,510.0474" fill="none" id="ListContainer-backto-PolicyList" style="stroke:#181818;stroke-width:0.5;stroke-dasharray:3.5,3.5;"/><polygon fill="none" points="142.925,420.9274,136.9561,428.3011,142.5741,430.4077,142.925,420.9274" style="stroke:#181818;stroke-width:0.5;"/></g><!--reverse link ListContainer to MeetingList--><g class="link" data-entity-1="ListContainer" data-entity-2="MeetingList" data-source-line="88" data-uid="lnk21" id="link_ListContainer_MeetingList"><path d="M620.8826,428.7994 C633.5126,451.5894 658.29,496.3024 670.945,519.1424" fill="none" id="ListContainer-backto-MeetingList" style="stroke:#181818;stroke-width:0.5;stroke-dasharray:3.5,3.5;"/><polygon fill="none" points="616.52,420.9274,618.2586,430.2535,623.5066,427.3452,616.52,420.9274" style="stroke:#181818;stroke-width:0.5;"/></g><!--reverse link ListContainer to TaskList--><g class="link" data-entity-1="ListContainer" data-entity-2="TaskList" data-source-line="89" data-uid="lnk23" id="link_ListContainer_TaskList"><path d="M611.16,429.9224 C611.92,452.7124 613.375,496.3024 614.135,519.1424" fill="none" id="ListContainer-backto-TaskList" style="stroke:#181818;stroke-width:0.5;stroke-dasharray:3.5,3.5;"/><polygon fill="none" points="610.86,420.9274,608.1616,430.0224,614.1583,429.8224,610.86,420.9274" style="stroke:#181818;stroke-width:0.5;"/></g><!--reverse link ListContainer to UserList--><g class="link" data-entity-1="ListContainer" data-entity-2="UserList" data-source-line="90" data-uid="lnk25" id="link_ListContainer_UserList"><path d="M630.092,426.6794 C648.762,442.6344 677.52,467.9474 705.5,496.8174 C712.485,504.0224 719.845,512.6374 725.335,519.2924" fill="none" id="ListContainer-backto-UserList" style="stroke:#181818;stroke-width:0.5;stroke-dasharray:3.5,3.5;"/><polygon fill="none" points="623.25,420.8324,628.143,428.96,632.041,424.3987,623.25,420.8324" style="stroke:#181818;stroke-width:0.5;"/></g><!--link ClientList to ListContainer--><g class="link" data-entity-1="ClientList" data-entity-2="ListContainer" data-source-line="95" data-uid="lnk26" id="link_ClientList_ListContainer"><path codeLine="95" d="M417.04,309.1174 C419.88,310.2124 422.705,311.2824 425.5,312.3174 C482.52,333.4524 504.775,319.8374 556.5,351.8174 C576.255,364.0324 588.2765,378.0046 597.6915,390.8946" fill="none" id="ClientList-to-ListContainer" style="stroke:#181818;stroke-width:0.5;stroke-dasharray:3.5,3.5;"/><polygon fill="none" points="603,398.1624,600.1141,389.1251,595.269,392.6641,603,398.1624" style="stroke:#181818;stroke-width:0.5;"/></g><!--link ArchivedClientList to ListContainer--><g class="link" data-entity-1="ArchivedClientList" data-entity-2="ListContainer" data-source-line="96" data-uid="lnk27" id="link_ArchivedClientList_ListContainer"><path codeLine="96" d="M525.095,289.1374 C537.115,300.4524 550.315,313.8924 561,327.3174 C579.755,350.8774 592.6755,374.1205 601.0105,390.3105" fill="none" id="ArchivedClientList-to-ListContainer" style="stroke:#181818;stroke-width:0.5;stroke-dasharray:3.5,3.5;"/><polygon fill="none" points="605.13,398.3124,603.6777,388.9374,598.3432,391.6837,605.13,398.3124" style="stroke:#181818;stroke-width:0.5;"/></g><!--reverse link ClientList to Client--><g class="link" data-entity-1="ClientList" data-entity-2="Client" data-source-line="99" data-uid="lnk28" id="link_ClientList_Client"><path codeLine="99" d="M290.8714,318.3323 C289.8364,323.3223 290.165,322.4574 289.5,327.3174 C288.42,335.1924 287.745,343.5374 287.34,351.7624" fill="none" id="ClientList-backto-Client" style="stroke:#181818;stroke-width:0.5;"/><polygon fill="#181818" points="292.09,312.4574,289.5224,314.9887,290.8714,318.3323,293.439,315.801,292.09,312.4574" style="stroke:#181818;stroke-width:0.5;"/><text fill="#000000" font-family="sans-serif" font-size="6.5" lengthAdjust="spacing" textLength="3.615" x="287.4164" y="323.5082">1</text><text fill="#000000" font-family="sans-serif" font-size="6.5" lengthAdjust="spacing" textLength="9.7563" x="277.4799" y="346.1149">0..*</text></g><!--link ClientList to Client--><g class="link" data-entity-1="ClientList" data-entity-2="Client" data-source-line="113" data-uid="lnk37" id="link_ClientList_Client"><path codeLine="113" d="M300.3,312.4374 C298.685,325.1524 297.3239,335.8264 295.6789,348.7464" fill="none" id="ClientList-to-Client" style="stroke:#181818;stroke-width:0.5;stroke-dasharray:3.5,3.5;"/><polygon fill="#181818" points="295.3,351.7224,297.8523,347.511,295.6158,349.2424,293.8844,347.0058,295.3,351.7224" style="stroke:#181818;stroke-width:0.5;"/><polygon fill="#000000" points="300.6844,334.6201,302.7131,330.3193,299.7976,329.9483,300.6844,334.6201" style="stroke:#000000;stroke-width:0.5;"/><text fill="#000000" font-family="sans-serif" font-size="6.5" lengthAdjust="spacing" textLength="26.7395" x="305.5" y="334.8315">manages</text></g><!--reverse link ArchivedClientList to Client--><g class="link" data-entity-1="ArchivedClientList" data-entity-2="Client" data-source-line="100" data-uid="lnk29" id="link_ArchivedClientList_Client"><path codeLine="100" d="M456.1706,292.9532 C445.6756,301.5832 438.035,306.4574 425.5,312.3174 C395.495,326.3424 380.69,309.9274 352.5,327.3174 C342.115,333.7224 332.72,342.4374 324.52,351.7924" fill="none" id="ArchivedClientList-backto-Client" style="stroke:#181818;stroke-width:0.5;"/><polygon fill="#181818" points="460.805,289.1424,457.2175,289.503,456.1706,292.9532,459.7581,292.5926,460.805,289.1424" style="stroke:#181818;stroke-width:0.5;"/><text fill="#000000" font-family="sans-serif" font-size="6.5" lengthAdjust="spacing" textLength="3.615" x="453.5738" y="300.1018">1</text><text fill="#000000" font-family="sans-serif" font-size="6.5" lengthAdjust="spacing" textLength="9.7563" x="317.1579" y="346.1469">0..*</text></g><!--link ArchivedClientList to Client--><g class="link" data-entity-1="ArchivedClientList" data-entity-2="Client" data-source-line="116" data-uid="lnk40" id="link_ArchivedClientList_Client"><path codeLine="116" d="M455.49,289.0874 C445.835,296.7624 435.345,304.9474 425.5,312.3174 C408.09,325.3474 391.6188,337.2544 373.5388,350.0494" fill="none" id="ArchivedClientList-to-Client" style="stroke:#181818;stroke-width:0.5;stroke-dasharray:3.5,3.5;"/><polygon fill="#181818" points="371.09,351.7824,375.9186,350.8154,373.1307,350.3382,373.6079,347.5503,371.09,351.7824" style="stroke:#181818;stroke-width:0.5;"/><polygon fill="#000000" points="403.9941,333.6323,408.4998,332.112,406.7457,329.754,403.9941,333.6323" style="stroke:#000000;stroke-width:0.5;"/><text fill="#000000" font-family="sans-serif" font-size="6.5" lengthAdjust="spacing" textLength="26.7395" x="410.5" y="334.8315">manages</text></g><!--reverse link Client to PolicyList--><g class="link" data-entity-1="Client" data-entity-2="PolicyList" data-source-line="101" data-uid="lnk30" id="link_Client_PolicyList"><path codeLine="101" d="M194.1783,470.5952 C170.4333,485.9152 151.365,498.2174 133.095,510.0074" fill="none" id="Client-backto-PolicyList" style="stroke:#181818;stroke-width:0.5;"/><polygon fill="#181818" points="199.22,467.3424,195.6149,467.2882,194.1783,470.5952,197.7834,470.6494,199.22,467.3424" style="stroke:#181818;stroke-width:0.5;"/><text fill="#000000" font-family="sans-serif" font-size="6.5" lengthAdjust="spacing" textLength="3.615" x="189.9191" y="478.3374">1</text><text fill="#000000" font-family="sans-serif" font-size="6.5" lengthAdjust="spacing" textLength="3.615" x="134.4815" y="504.4301">1</text></g><!--link Client to PolicyList--><g class="link" data-entity-1="Client" data-entity-2="PolicyList" data-source-line="117" data-uid="lnk41" id="link_Client_PolicyList"><path codeLine="117" d="M211.01,467.4024 C198.335,476.2074 185.19,484.9674 172.5,492.8174 C162.905,498.7524 154.9245,503.2751 144.8895,508.6051" fill="none" id="Client-to-PolicyList" style="stroke:#181818;stroke-width:0.5;stroke-dasharray:3.5,3.5;"/><polygon fill="#181818" points="142.24,510.0124,147.1524,509.6678,144.4479,508.8397,145.276,506.1352,142.24,510.0124" style="stroke:#181818;stroke-width:0.5;"/><polygon fill="#000000" points="186.3782,489.4623,190.9937,488.3176,189.4394,485.8233,186.3782,489.4623" style="stroke:#000000;stroke-width:0.5;"/><text fill="#000000" font-family="sans-serif" font-size="6.5" lengthAdjust="spacing" textLength="13.73" x="193" y="490.8315">uses</text></g><!--link LookUpTable to ClientList--><g class="link" data-entity-1="LookUpTable" data-entity-2="ClientList" data-source-line="105" data-uid="lnk31" id="link_LookUpTable_ClientList"><path codeLine="105" d="M267.045,149.9574 C272.84,165.7424 279.5464,184.021 286.6714,203.436" fill="none" id="LookUpTable-to-ClientList" style="stroke:#181818;stroke-width:0.5;"/><polygon fill="#181818" points="287.705,206.2524,288.0322,201.3388,286.8437,203.9054,284.2771,202.7169,287.705,206.2524" style="stroke:#181818;stroke-width:0.5;"/></g><!--link LookUpTable to ArchivedClientList--><g class="link" data-entity-1="LookUpTable" data-entity-2="ArchivedClientList" data-source-line="106" data-uid="lnk32" id="link_LookUpTable_ArchivedClientList"><path codeLine="106" d="M298.595,149.9374 C315.87,159.3374 336.6,169.2474 356.5,175.3174 C386.055,184.3324 398.175,169.3874 425.5,183.8174 C445.285,194.2674 460.1461,210.7863 471.7511,227.0313" fill="none" id="LookUpTable-to-ArchivedClientList" style="stroke:#181818;stroke-width:0.5;"/><polygon fill="#181818" points="473.495,229.4724,472.5066,224.6482,472.0418,227.4381,469.2518,226.9733,473.495,229.4724" style="stroke:#181818;stroke-width:0.5;"/></g><!--link LookUpTable to PolicyList--><g class="link" data-entity-1="LookUpTable" data-entity-2="PolicyList" data-source-line="107" data-uid="lnk33" id="link_LookUpTable_PolicyList"><path codeLine="107" d="M226.595,149.8324 C181.46,187.4374 100.69,264.2724 73.5,351.8174 C56.69,405.9324 59.16,424.4974 73.5,479.3174 C76.315,490.0724 80.3866,498.4043 85.9266,507.3193" fill="none" id="LookUpTable-to-PolicyList" style="stroke:#181818;stroke-width:0.5;"/><polygon fill="#181818" points="87.51,509.8674,86.8336,504.9896,86.1905,507.744,83.4361,507.1009,87.51,509.8674" style="stroke:#181818;stroke-width:0.5;"/></g><!--link LookUpTable to MeetingList--><g class="link" data-entity-1="LookUpTable" data-entity-2="MeetingList" data-source-line="108" data-uid="lnk34" id="link_LookUpTable_MeetingList"><path codeLine="108" d="M296.425,149.9024 C314.015,159.7924 335.57,170.0824 356.5,175.3174 C370.035,178.7024 596.625,175.0774 607.5,183.8174 C714.57,269.8274 687.9915,467.4613 679.5465,516.2663" fill="none" id="LookUpTable-to-MeetingList" style="stroke:#181818;stroke-width:0.5;"/><polygon fill="#181818" points="679.035,519.2224,681.773,515.1293,679.4613,516.759,677.8315,514.4473,679.035,519.2224" style="stroke:#181818;stroke-width:0.5;"/></g><!--link LookUpTable to TaskList--><g class="link" data-entity-1="LookUpTable" data-entity-2="TaskList" data-source-line="109" data-uid="lnk35" id="link_LookUpTable_TaskList"><path codeLine="109" d="M296.95,149.9474 C314.46,159.7174 335.815,169.9024 356.5,175.3174 C378.015,180.9524 537.82,171.7474 556.5,183.8174 C626.7,229.1724 621.7,270.4974 641,351.8174 C654.085,406.9524 654.505,424.2824 641,479.3174 C637.375,494.0874 630.2623,506.8169 623.8023,516.6919" fill="none" id="LookUpTable-to-TaskList" style="stroke:#181818;stroke-width:0.5;"/><polygon fill="#181818" points="622.16,519.2024,626.2972,516.5315,623.5286,517.1103,622.9498,514.3417,622.16,519.2024" style="stroke:#181818;stroke-width:0.5;"/></g><!--link LookUpTable to UserList--><g class="link" data-entity-1="LookUpTable" data-entity-2="UserList" data-source-line="110" data-uid="lnk36" id="link_LookUpTable_UserList"><path codeLine="110" d="M296.415,149.9324 C314.005,159.8274 335.56,170.1124 356.5,175.3174 C372.655,179.3324 643.085,173.3174 656,183.8174 C763.09,270.9024 742.907,467.7165 736.087,516.3015" fill="none" id="LookUpTable-to-UserList" style="stroke:#181818;stroke-width:0.5;"/><polygon fill="#181818" points="735.67,519.2724,738.2761,515.0941,736.0175,516.7967,734.315,514.5381,735.67,519.2724" style="stroke:#181818;stroke-width:0.5;"/></g><!--link ClientList to PolicyList--><g class="link" data-entity-1="ClientList" data-entity-2="PolicyList" data-source-line="114" data-uid="lnk38" id="link_ClientList_PolicyList"><path codeLine="114" d="M197,281.2724 C158.025,294.7374 118.14,316.5524 95,351.8174 C62.845,400.8224 81.0786,471.9525 93.2786,507.1925" fill="none" id="ClientList-to-PolicyList" style="stroke:#181818;stroke-width:0.5;stroke-dasharray:3.5,3.5;"/><polygon fill="#181818" points="94.26,510.0274,94.6778,505.1207,93.4421,507.6649,90.8979,506.4293,94.26,510.0274" style="stroke:#181818;stroke-width:0.5;"/><polygon fill="#000000" points="96.4569,411.9121,99.6793,408.4152,97.0084,407.1889,96.4569,411.9121" style="stroke:#000000;stroke-width:0.5;"/><text fill="#000000" font-family="sans-serif" font-size="6.5" lengthAdjust="spacing" textLength="13.73" x="102" y="412.3315">uses</text></g><!--link ClientList to ClientPolicy--><g class="link" data-entity-1="ClientList" data-entity-2="ClientPolicy" data-source-line="115" data-uid="lnk39" id="link_ClientList_ClientPolicy"><path codeLine="115" d="M417.12,309.5174 C432.605,321.1974 446.47,335.2024 456,351.8174 C462.335,362.8624 458.5,396.3324 458.5,409.0674 C458.5,409.0674 458.5,409.0674 458.5,606.8174 C458.5,665.2024 266.5296,675.3936 172.0946,676.9286" fill="none" id="ClientList-to-ClientPolicy" style="stroke:#181818;stroke-width:0.5;stroke-dasharray:3.5,3.5;"/><polygon fill="#181818" points="169.095,676.9774,173.6269,678.904,171.5947,676.9368,173.5619,674.9045,169.095,676.9774" style="stroke:#181818;stroke-width:0.5;"/><polygon fill="#000000" points="459.6129,532.72,463.3447,529.7728,460.8996,528.1422,459.6129,532.72" style="stroke:#000000;stroke-width:0.5;"/><text fill="#000000" font-family="sans-serif" font-size="6.5" lengthAdjust="spacing" textLength="21.3154" x="465.5" y="533.3315">creates</text></g><!--link Client to ClientPolicy--><g class="link" data-entity-1="Client" data-entity-2="ClientPolicy" data-source-line="118" data-uid="lnk42" id="link_Client_ClientPolicy"><path codeLine="118" d="M251.745,467.3474 C215.325,524.8824 162.5293,608.2924 136.1143,650.0324" fill="none" id="Client-to-ClientPolicy" style="stroke:#181818;stroke-width:0.5;stroke-dasharray:3.5,3.5;"/><polygon fill="#181818" points="134.51,652.5674,138.6064,649.8344,135.8469,650.4549,135.2264,647.6953,134.51,652.5674" style="stroke:#181818;stroke-width:0.5;"/><polygon fill="#000000" points="190.1629,573.0025,193.8233,569.9671,191.3401,568.3953,190.1629,573.0025" style="stroke:#000000;stroke-width:0.5;"/><text fill="#000000" font-family="sans-serif" font-size="6.5" lengthAdjust="spacing" textLength="13.73" x="196" y="573.5815">uses</text></g><!--link ClientList to FinanceProPlusException--><g class="link" data-entity-1="ClientList" data-entity-2="FinanceProPlusException" data-source-line="121" data-uid="lnk43" id="link_ClientList_FinanceProPlusException"><path codeLine="121" d="M401.14,312.4324 C405.1,317.0474 408.61,322.0074 411.5,327.3174 C447.225,392.9174 405.867,484.6647 389.357,516.4747" fill="none" id="ClientList-to-FinanceProPlusException" style="stroke:#181818;stroke-width:0.5;stroke-dasharray:3.5,3.5;"/><polygon fill="#181818" points="387.975,519.1374,391.8231,516.0646,389.1267,516.9185,388.2729,514.222,387.975,519.1374" style="stroke:#181818;stroke-width:0.5;"/><polygon fill="#000000" points="427.8559,412.136,429.5836,407.7057,426.6496,407.5362,427.8559,412.136" style="stroke:#000000;stroke-width:0.5;"/><text fill="#000000" font-family="sans-serif" font-size="6.5" lengthAdjust="spacing" textLength="19.1445" x="432.5" y="412.3315">throws</text></g><!--link ArchivedClientList to FinanceProPlusException--><g class="link" data-entity-1="ArchivedClientList" data-entity-2="FinanceProPlusException" data-source-line="122" data-uid="lnk44" id="link_ArchivedClientList_FinanceProPlusException"><path codeLine="122" d="M493.735,289.1774 C495.695,333.8324 493.67,419.8974 456,479.3174 C449.16,490.1074 423.3071,506.387 403.7421,517.787" fill="none" id="ArchivedClientList-to-FinanceProPlusException" style="stroke:#181818;stroke-width:0.5;stroke-dasharray:3.5,3.5;"/><polygon fill="#181818" points="401.15,519.2974,406.045,518.7599,403.3101,518.0388,404.0312,515.3038,401.15,519.2974" style="stroke:#181818;stroke-width:0.5;"/><polygon fill="#000000" points="494.5843,411.9664,497.6082,408.2964,494.8735,407.2199,494.5843,411.9664" style="stroke:#000000;stroke-width:0.5;"/><text fill="#000000" font-family="sans-serif" font-size="6.5" lengthAdjust="spacing" textLength="19.1445" x="500" y="412.3315">throws</text></g><!--link Client to FinanceProPlusException--><g class="link" data-entity-1="Client" data-entity-2="FinanceProPlusException" data-source-line="123" data-uid="lnk45" id="link_Client_FinanceProPlusException"><path codeLine="123" d="M332.935,467.4324 C348.42,487.1974 362.35,504.9807 371.695,516.9107" fill="none" id="Client-to-FinanceProPlusException" style="stroke:#181818;stroke-width:0.5;stroke-dasharray:3.5,3.5;"/><polygon fill="#181818" points="373.545,519.2724,372.3445,514.4965,372.0034,517.3043,369.1956,516.9631,373.545,519.2724" style="stroke:#181818;stroke-width:0.5;"/><polygon fill="#000000" points="356.0417,490.1082,354.4095,485.6418,352.096,487.4542,356.0417,490.1082" style="stroke:#000000;stroke-width:0.5;"/><text fill="#000000" font-family="sans-serif" font-size="6.5" lengthAdjust="spacing" textLength="19.1445" x="359" y="490.8315">throws</text></g><!--reverse link Policy to ClientPolicy--><g class="link" data-entity-1="Policy" data-entity-2="ClientPolicy" data-source-line="126" data-uid="lnk46" id="link_Policy_ClientPolicy"><path codeLine="126" d="M112.1334,631.1338 C113.4534,639.9788 113.815,642.3874 115.32,652.4374" fill="none" id="Policy-backto-ClientPolicy" style="stroke:#181818;stroke-width:0.5;"/><polygon fill="none" points="110.805,622.2324,109.1663,631.5766,115.1006,630.691,110.805,622.2324" style="stroke:#181818;stroke-width:0.5;"/></g><!--reverse link PolicyList to Policy--><g class="link" data-entity-1="PolicyList" data-entity-2="Policy" data-source-line="127" data-uid="lnk47" id="link_PolicyList_Policy"><path codeLine="127" d="M104.2595,557.0749 C105.3345,569.4449 106.175,579.0924 107.165,590.4774" fill="none" id="PolicyList-backto-Policy" style="stroke:#181818;stroke-width:0.5;"/><polygon fill="#181818" points="103.74,551.0974,102.0072,554.2593,104.2595,557.0749,105.9922,553.913,103.74,551.0974" style="stroke:#181818;stroke-width:0.5;"/><text fill="#000000" font-family="sans-serif" font-size="6.5" lengthAdjust="spacing" textLength="3.615" x="100.2637" y="562.0779">1</text><text fill="#000000" font-family="sans-serif" font-size="6.5" lengthAdjust="spacing" textLength="9.7563" x="96.4282" y="584.8505">0..*</text></g><!--SRC=[hLRRRjiu47tNLn3kGvMc4jfNmJ2Gn5jiW2GraEG3Q6fY4PP8WgIIUDFyUuUwMDJ5Zekj7cA5SpXpPkPmACjj3kJnzePSvTGOikHqesb1dgGcFxYWWi5AotEqSX2Mt591Dr3WQn2OBHUAEZ1pMo-irNnTMhXcKjpp_u1y6q9-Aj3KSYac8SQ21cbt2bRIS0SZLYeFm0KYdYY3-psIpFQBio3ZAH36DSiX2095sHQv4WEGbd5QRY76g9Po0Pgy1GIV_LvomuszsbldyxrbiMYmxZadD4slBHGXrPlILS4av1xJ5fkpKq1VIUx7IVfXVHSfv82L_32Ky-TG9lHNMGPikwnTY1HU9tmaBlbgotjG_LGD8ZTIRX_L0rsZABgy8r9GbP1_gSbkgPgtoVJOBxpudfUGLSB1mBM2t9wlHCcSCmwukd9lkterZcC_YmrKw70BEuzsBsYJmFjqjsl9lddfTHnwsUqvNcXDApBp6jab5KKUiyvDEEXxRMcIRdC-KHjgNug_88mdBXeobxixpLaey8zNnjhM9rRtua4sIKnGB93FwXIQfKgfXHhwG-f37WVjRWbVBntK7ARxcVoq6HxK0cmcKqDamQs5j9fQQmtFtEx6shxGBEFFa1uG0UsPJnV3s6rV5BNvGs5eC5Rg5iVTiQtEw5zA_ie_37N2WXRGbjXVzeJYBQjC2hWhYxMRMzoZ4_M4swdZsD7vNzfwCnOl4VPEy5OmJS6MWBZSDFLj_lFqWsDhIkjXJRqjSRtenygewI7ll9gXsxMKEL0nfU8kbV1iiYpdv9d3IqlyxEWeWrS6gheH_MdMtS-hl3J_332LhyzabUCjbiayHSLKsy1W-vv0QoSPBV5gnYB3gyNBbfXClg0Iy-gIDXbNPefDNOeUbPM_v9vFOtczZ-GusXNXHm3LTecp0mKW6StTgsU6LyNrxh2zm5ooVBVIKF2oICWbtoo1yOBc8mfTImWlL5vzr9Z1Xy3RKENLdTKDXjh7OZ1twzNBIYoXw2kcjlrPW_nB6Pjbh2uPpegWpkCMmABleuaqq0TgjgVW7WteuxZ0CRzkhPLSai0Rh77yQp7OCZ5-9r3ezaeMgla0xFcSVP-HBr54Pj_Y-CkidOeJRgU1pGJS6_7NEvKky8Knal4c6R_eKRJmxloHQKnX1F4Y3KrU_qQsjc4ZGziXHti92l2w43Z7-YreIPC4XwlxRZTaCKHufo0XfPc2zCvgGfW6F7CEDzdH8q4_23WLh05WbjruAmrw7P8yD0iJOZCjNuxGFM6dn-y4j3iP0YzeRXqoQ7AP_qBH-Ta5NYK6Ycq0lm40]--></g></svg>