<svg xmlns="http://www.w3.org/2000/svg" xmlns:xlink="http://www.w3.org/1999/xlink" contentStyleType="text/css" data-diagram-type="CLASS" height="1366px" preserveAspectRatio="none" style="width:1805px;height:1366px;background:#FFFFFF;" version="1.1" viewBox="0 0 1805 1366" width="1805px" zoomAndPan="magnify"><title>UML Class Diagram for FinancePro+ Client Management</title><defs/><g><g class="title" data-source-line="1"><text fill="#000000" font-family="sans-serif" font-size="14" font-weight="bold" lengthAdjust="spacing" textLength="443.2217" x="674.1177" y="22.9951">UML Class Diagram for FinancePro+ Client Management</text></g><!--cluster seedu--><g class="cluster" data-entity="seedu" data-source-line="12" data-uid="ent0004" id="cluster_seedu"><rect fill="none" height="1315.91" rx="2.5" ry="2.5" style="stroke:#000000;stroke-width:1.5;" width="1389" x="7" y="44.2969"/><text fill="#000000" font-family="sans-serif" font-size="14" font-weight="bold" lengthAdjust="spacing" textLength="47.3115" x="677.8442" y="59.292">seedu</text></g><!--cluster duke--><g class="cluster" data-entity="duke" data-source-line="12" data-uid="ent0005" id="cluster_duke"><rect fill="none" height="1248.91" rx="2.5" ry="2.5" style="stroke:#000000;stroke-width:1.5;" width="1341" x="31" y="87.2969"/><text fill="#000000" font-family="sans-serif" font-size="14" font-weight="bold" lengthAdjust="spacing" textLength="38.7939" x="682.103" y="102.292">duke</text></g><!--cluster container--><g class="cluster" data-entity="container" data-source-line="11" data-uid="ent0002" id="cluster_container"><rect fill="none" height="172.49" rx="2.5" ry="2.5" style="stroke:#000000;stroke-width:1.5;" width="891" x="457" y="130.2969"/><text fill="#000000" font-family="sans-serif" font-size="14" font-weight="bold" lengthAdjust="spacing" textLength="75.1885" x="864.9058" y="145.292">container</text></g><!--cluster client--><g class="cluster" data-entity="client" data-source-line="27" data-uid="ent0007" id="cluster_client"><rect fill="none" height="533.64" rx="2.5" ry="2.5" style="stroke:#000000;stroke-width:1.5;" width="826" x="55" y="335.7869"/><text fill="#000000" font-family="sans-serif" font-size="14" font-weight="bold" lengthAdjust="spacing" textLength="44.0508" x="445.9746" y="350.782">client</text></g><!--cluster exception--><g class="cluster" data-entity="exception" data-source-line="66" data-uid="ent0011" id="cluster_exception"><rect fill="none" height="83" rx="2.5" ry="2.5" style="stroke:#000000;stroke-width:1.5;" width="238" x="236" y="921.7269"/><text fill="#000000" font-family="sans-serif" font-size="14" font-weight="bold" lengthAdjust="spacing" textLength="77.417" x="316.2915" y="936.722">exception</text></g><!--cluster policy--><g class="cluster" data-entity="policy" data-source-line="72" data-uid="ent0013" id="cluster_policy"><rect fill="none" height="615.27" rx="2.5" ry="2.5" style="stroke:#000000;stroke-width:1.5;" width="334" x="905" y="696.9369"/><text fill="#000000" font-family="sans-serif" font-size="14" font-weight="bold" lengthAdjust="spacing" textLength="46.6621" x="1048.6689" y="711.932">policy</text></g><!--class ListContainer--><g class="entity" data-entity="ListContainer" data-source-line="12" data-uid="ent0003" id="entity_ListContainer"><rect fill="#F1F1F1" height="121.4844" rx="2.5" ry="2.5" style="stroke:#181818;stroke-width:0.5;" width="419.7568" x="473.12" y="165.2969"/><ellipse cx="632.3051" cy="181.2969" fill="#B4A7E5" rx="11" ry="11" style="stroke:#181818;stroke-width:1;"/><path d="M628.2269,177.0625 L628.2269,174.9063 L635.6176,174.9063 L635.6176,177.0625 L633.1488,177.0625 L633.1488,185.1406 L635.6176,185.1406 L635.6176,187.2969 L628.2269,187.2969 L628.2269,185.1406 L630.6957,185.1406 L630.6957,177.0625 L628.2269,177.0625 Z " fill="#000000"/><text fill="#000000" font-family="sans-serif" font-size="14" font-style="italic" lengthAdjust="spacing" textLength="92.8867" x="652.8051" y="186.1436">ListContainer</text><line style="stroke:#181818;stroke-width:0.5;" x1="474.12" x2="891.8768" y1="197.2969" y2="197.2969"/><text fill="#000000" font-family="sans-serif" font-size="14" lengthAdjust="spacing" textLength="207.8262" x="479.12" y="214.292">+addItem(arguments: String)</text><text fill="#000000" font-family="sans-serif" font-size="14" lengthAdjust="spacing" textLength="407.7568" x="479.12" y="230.5889">+addItem(arguments: String, listContainer: ListContainer)</text><text fill="#000000" font-family="sans-serif" font-size="14" lengthAdjust="spacing" textLength="225.5791" x="479.12" y="246.8857">+deleteItem(arguments: String)</text><text fill="#000000" font-family="sans-serif" font-size="14" lengthAdjust="spacing" textLength="82.3799" x="479.12" y="263.1826">+listItems()</text><text fill="#000000" font-family="sans-serif" font-size="14" lengthAdjust="spacing" textLength="302.7979" x="479.12" y="279.4795">+checkDeleteIndex(arguments: String): int</text></g><!--class LookUpTable--><g class="entity" data-entity="LookUpTable" data-source-line="20" data-uid="ent0006" id="entity_LookUpTable"><rect fill="#F1F1F1" height="96.8906" rx="2.5" ry="2.5" style="stroke:#181818;stroke-width:0.5;" width="403.5488" x="928.23" y="177.5969"/><ellipse cx="1080.4082" cy="193.5969" fill="#ADD1B2" rx="11" ry="11" style="stroke:#181818;stroke-width:1;"/><path d="M1083.377,199.2375 Q1082.7988,199.5344 1082.1582,199.675 Q1081.5176,199.8313 1080.8145,199.8313 Q1078.3145,199.8313 1076.9863,198.1906 Q1075.6738,196.5344 1075.6738,193.4094 Q1075.6738,190.2844 1076.9863,188.6281 Q1078.3145,186.9719 1080.8145,186.9719 Q1081.5176,186.9719 1082.1582,187.1281 Q1082.8145,187.2844 1083.377,187.5813 L1083.377,190.3 Q1082.752,189.7219 1082.1582,189.4563 Q1081.5645,189.175 1080.9395,189.175 Q1079.5957,189.175 1078.9082,190.2531 Q1078.2207,191.3156 1078.2207,193.4094 Q1078.2207,195.5031 1078.9082,196.5813 Q1079.5957,197.6438 1080.9395,197.6438 Q1081.5645,197.6438 1082.1582,197.3781 Q1082.752,197.0969 1083.377,196.5188 L1083.377,199.2375 Z " fill="#000000"/><text fill="#000000" font-family="sans-serif" font-size="14" lengthAdjust="spacing" textLength="90.6924" x="1100.9082" y="198.4436">LookUpTable</text><line style="stroke:#181818;stroke-width:0.5;" x1="929.23" x2="1330.7788" y1="209.5969" y2="209.5969"/><text fill="#000000" font-family="sans-serif" font-size="14" lengthAdjust="spacing" textLength="277.1699" x="934.23" y="226.592">-map: HashMap&lt;String, ListContainer&gt;</text><line style="stroke:#181818;stroke-width:0.5;" x1="929.23" x2="1330.7788" y1="233.8938" y2="233.8938"/><text fill="#000000" font-family="sans-serif" font-size="14" lengthAdjust="spacing" textLength="391.5488" x="934.23" y="250.8889">+LookUpTable(clients: ClientList, policies: PolicyList, ...)</text><text fill="#000000" font-family="sans-serif" font-size="14" lengthAdjust="spacing" textLength="248.124" x="934.23" y="267.1857">+getList(key: String): ListContainer</text></g><!--class ClientList--><g class="entity" data-entity="ClientList" data-source-line="28" data-uid="ent0008" id="entity_ClientList"><rect fill="#F1F1F1" height="194.6719" rx="2.5" ry="2.5" style="stroke:#181818;stroke-width:0.5;" width="497.5498" x="367.23" y="370.7869"/><ellipse cx="579.2534" cy="386.7869" fill="#ADD1B2" rx="11" ry="11" style="stroke:#181818;stroke-width:1;"/><path d="M582.2222,392.4275 Q581.6441,392.7244 581.0034,392.865 Q580.3628,393.0213 579.6597,393.0213 Q577.1597,393.0213 575.8316,391.3806 Q574.5191,389.7244 574.5191,386.5994 Q574.5191,383.4744 575.8316,381.8181 Q577.1597,380.1619 579.6597,380.1619 Q580.3628,380.1619 581.0034,380.3181 Q581.6597,380.4744 582.2222,380.7713 L582.2222,383.49 Q581.5972,382.9119 581.0034,382.6463 Q580.4097,382.365 579.7847,382.365 Q578.4409,382.365 577.7534,383.4431 Q577.0659,384.5056 577.0659,386.5994 Q577.0659,388.6931 577.7534,389.7713 Q578.4409,390.8338 579.7847,390.8338 Q580.4097,390.8338 581.0034,390.5681 Q581.5972,390.2869 582.2222,389.7088 L582.2222,392.4275 Z " fill="#000000"/><text fill="#000000" font-family="sans-serif" font-size="14" lengthAdjust="spacing" textLength="65.0029" x="599.7534" y="391.6336">ClientList</text><line style="stroke:#181818;stroke-width:0.5;" x1="368.23" x2="863.7798" y1="402.7869" y2="402.7869"/><text fill="#000000" font-family="sans-serif" font-size="14" lengthAdjust="spacing" textLength="186.3818" x="373.23" y="419.782">-clients: ArrayList&lt;Client&gt;</text><line style="stroke:#181818;stroke-width:1;" x1="368.23" x2="863.7798" y1="427.0838" y2="427.0838"/><text fill="#000000" font-family="sans-serif" font-size="14" lengthAdjust="spacing" textLength="87.6572" x="373.23" y="444.0789">+ClientList()</text><text fill="#000000" font-family="sans-serif" font-size="14" lengthAdjust="spacing" textLength="177.6865" x="373.23" y="460.3757">+addClient(client: Client)</text><text fill="#000000" font-family="sans-serif" font-size="14" lengthAdjust="spacing" textLength="384.4668" x="373.23" y="476.6726">+addItem(arguments: String, policyList: ListContainer)</text><text fill="#000000" font-family="sans-serif" font-size="14" lengthAdjust="spacing" textLength="225.5791" x="373.23" y="492.9695">+deleteItem(arguments: String)</text><text fill="#000000" font-family="sans-serif" font-size="14" lengthAdjust="spacing" textLength="262.3291" x="373.23" y="509.2664">+findClientByNric(nric: String): Client</text><text fill="#000000" font-family="sans-serif" font-size="14" lengthAdjust="spacing" textLength="485.5498" x="373.23" y="525.5632">+addPolicyToClient(arguments: String, mainPolicyList: ListContainer)</text><text fill="#000000" font-family="sans-serif" font-size="14" lengthAdjust="spacing" textLength="302.6064" x="373.23" y="541.8601">+updatePolicyForClient(arguments: String)</text><text fill="#000000" font-family="sans-serif" font-size="14" lengthAdjust="spacing" textLength="250.1338" x="373.23" y="558.157">+getClientByID(args: String): Client</text></g><!--class ArchivedClientList--><g class="entity" data-entity="ArchivedClientList" data-source-line="42" data-uid="ent0009" id="entity_ArchivedClientList"><rect fill="#F1F1F1" height="113.1875" rx="2.5" ry="2.5" style="stroke:#181818;stroke-width:0.5;" width="261.04" x="71.48" y="411.5269"/><ellipse cx="134.4595" cy="427.5269" fill="#ADD1B2" rx="11" ry="11" style="stroke:#181818;stroke-width:1;"/><path d="M137.4282,433.1675 Q136.8501,433.4644 136.2095,433.605 Q135.5689,433.7613 134.8657,433.7613 Q132.3657,433.7613 131.0376,432.1206 Q129.7251,430.4644 129.7251,427.3394 Q129.7251,424.2144 131.0376,422.5581 Q132.3657,420.9019 134.8657,420.9019 Q135.5689,420.9019 136.2095,421.0581 Q136.8657,421.2144 137.4282,421.5113 L137.4282,424.23 Q136.8032,423.6519 136.2095,423.3863 Q135.6157,423.105 134.9907,423.105 Q133.647,423.105 132.9595,424.1831 Q132.272,425.2456 132.272,427.3394 Q132.272,429.4331 132.9595,430.5113 Q133.647,431.5738 134.9907,431.5738 Q135.6157,431.5738 136.2095,431.3081 Q136.8032,431.0269 137.4282,430.4488 L137.4282,433.1675 Z " fill="#000000"/><text fill="#000000" font-family="sans-serif" font-size="14" lengthAdjust="spacing" textLength="126.5811" x="154.9595" y="432.3736">ArchivedClientList</text><line style="stroke:#181818;stroke-width:0.5;" x1="72.48" x2="331.52" y1="443.5269" y2="443.5269"/><text fill="#000000" font-family="sans-serif" font-size="14" lengthAdjust="spacing" textLength="249.04" x="77.48" y="460.522">-archivedClients: ArrayList&lt;Client&gt;</text><line style="stroke:#181818;stroke-width:1;" x1="72.48" x2="331.52" y1="467.8238" y2="467.8238"/><text fill="#000000" font-family="sans-serif" font-size="14" lengthAdjust="spacing" textLength="149.2354" x="77.48" y="484.8189">+ArchivedClientList()</text><text fill="#000000" font-family="sans-serif" font-size="14" lengthAdjust="spacing" textLength="203.0273" x="77.48" y="501.1157">+archiveClient(client: Client)</text><text fill="#000000" font-family="sans-serif" font-size="14" lengthAdjust="spacing" textLength="228.9355" x="77.48" y="517.4126">+restoreClient(index: int): Client</text></g><!--class Client--><g class="entity" data-entity="Client" data-source-line="51" data-uid="ent0010" id="entity_Client"><rect fill="#F1F1F1" height="210.9688" rx="2.5" ry="2.5" style="stroke:#181818;stroke-width:0.5;" width="413.3105" x="449.34" y="642.4569"/><ellipse cx="631.4801" cy="658.4569" fill="#ADD1B2" rx="11" ry="11" style="stroke:#181818;stroke-width:1;"/><path d="M634.4489,664.0975 Q633.8708,664.3944 633.2301,664.535 Q632.5895,664.6913 631.8864,664.6913 Q629.3864,664.6913 628.0583,663.0506 Q626.7458,661.3944 626.7458,658.2694 Q626.7458,655.1444 628.0583,653.4881 Q629.3864,651.8319 631.8864,651.8319 Q632.5895,651.8319 633.2301,651.9881 Q633.8864,652.1444 634.4489,652.4413 L634.4489,655.16 Q633.8239,654.5819 633.2301,654.3163 Q632.6364,654.035 632.0114,654.035 Q630.6676,654.035 629.9801,655.1131 Q629.2926,656.1756 629.2926,658.2694 Q629.2926,660.3631 629.9801,661.4413 Q630.6676,662.5038 632.0114,662.5038 Q632.6364,662.5038 633.2301,662.2381 Q633.8239,661.9569 634.4489,661.3788 L634.4489,664.0975 Z " fill="#000000"/><text fill="#000000" font-family="sans-serif" font-size="14" lengthAdjust="spacing" textLength="40.5303" x="651.9801" y="663.3036">Client</text><line style="stroke:#181818;stroke-width:0.5;" x1="450.34" x2="861.6505" y1="674.4569" y2="674.4569"/><text fill="#000000" font-family="sans-serif" font-size="14" lengthAdjust="spacing" textLength="95.7031" x="455.34" y="691.452">-name: String</text><text fill="#000000" font-family="sans-serif" font-size="14" lengthAdjust="spacing" textLength="82.2158" x="455.34" y="707.7489">-nric: String</text><text fill="#000000" font-family="sans-serif" font-size="14" lengthAdjust="spacing" textLength="132.5215" x="455.34" y="724.0457">-phoneNumber: int</text><text fill="#000000" font-family="sans-serif" font-size="14" lengthAdjust="spacing" textLength="145.1475" x="455.34" y="740.3426">-policyList: PolicyList</text><line style="stroke:#181818;stroke-width:1;" x1="450.34" x2="861.6505" y1="747.6444" y2="747.6444"/><text fill="#000000" font-family="sans-serif" font-size="14" lengthAdjust="spacing" textLength="401.3105" x="455.34" y="764.6395">+Client(arguments: String, mainPolicyList: ListContainer)</text><text fill="#000000" font-family="sans-serif" font-size="14" lengthAdjust="spacing" text-decoration="underline" textLength="327.4961" x="455.34" y="780.9364">+parseClientDetails(clientDetails: String): Map</text><text fill="#000000" font-family="sans-serif" font-size="14" lengthAdjust="spacing" textLength="221.457" x="455.34" y="797.2332">+addPolicy(policy: ClientPolicy)</text><text fill="#000000" font-family="sans-serif" font-size="14" lengthAdjust="spacing" textLength="286.7744" x="455.34" y="813.5301">+hasPolicy(policyName: String): boolean</text><text fill="#000000" font-family="sans-serif" font-size="14" lengthAdjust="spacing" textLength="225.8252" x="455.34" y="829.827">+getClientPolicyList(): PolicyList</text><text fill="#000000" font-family="sans-serif" font-size="14" lengthAdjust="spacing" textLength="103.4277" x="455.34" y="846.1239">+viewDetails()</text></g><!--class FinanceProPlusException--><g class="entity" data-entity="FinanceProPlusException" data-source-line="67" data-uid="ent0012" id="entity_FinanceProPlusException"><rect fill="#F1F1F1" height="32" rx="2.5" ry="2.5" style="stroke:#181818;stroke-width:0.5;" width="206.9863" x="251.51" y="956.7269"/><ellipse cx="266.51" cy="972.7269" fill="#FF0000" rx="11" ry="11" style="stroke:#181818;stroke-width:1;"/><path d="M270.6194,978.7269 L262.9006,978.7269 L262.9006,966.3363 L270.6194,966.3363 L270.6194,968.4925 L265.3538,968.4925 L265.3538,971.1644 L270.1194,971.1644 L270.1194,973.3206 L265.3538,973.3206 L265.3538,976.5706 L270.6194,976.5706 L270.6194,978.7269 Z " fill="#000000"/><text fill="#000000" font-family="sans-serif" font-size="14" lengthAdjust="spacing" textLength="174.9863" x="280.51" y="977.5736">FinanceProPlusException</text></g><!--class Policy--><g class="entity" data-entity="Policy" data-source-line="73" data-uid="ent0014" id="entity_Policy"><rect fill="#F1F1F1" height="56.2969" rx="2.5" ry="2.5" style="stroke:#181818;stroke-width:0.5;" width="114.3818" x="1014.81" y="1090.0169"/><ellipse cx="1048.5355" cy="1106.0169" fill="#ADD1B2" rx="11" ry="11" style="stroke:#181818;stroke-width:1;"/><path d="M1051.5043,1111.6575 Q1050.9262,1111.9544 1050.2855,1112.095 Q1049.6449,1112.2513 1048.9418,1112.2513 Q1046.4418,1112.2513 1045.1137,1110.6106 Q1043.8012,1108.9544 1043.8012,1105.8294 Q1043.8012,1102.7044 1045.1137,1101.0481 Q1046.4418,1099.3919 1048.9418,1099.3919 Q1049.6449,1099.3919 1050.2855,1099.5481 Q1050.9418,1099.7044 1051.5043,1100.0013 L1051.5043,1102.72 Q1050.8793,1102.1419 1050.2855,1101.8763 Q1049.6918,1101.595 1049.0668,1101.595 Q1047.723,1101.595 1047.0355,1102.6731 Q1046.348,1103.7356 1046.348,1105.8294 Q1046.348,1107.9231 1047.0355,1109.0013 Q1047.723,1110.0638 1049.0668,1110.0638 Q1049.6918,1110.0638 1050.2855,1109.7981 Q1050.8793,1109.5169 1051.5043,1108.9388 L1051.5043,1111.6575 Z " fill="#000000"/><text fill="#000000" font-family="sans-serif" font-size="14" lengthAdjust="spacing" textLength="40.7695" x="1066.6968" y="1110.8636">Policy</text><line style="stroke:#181818;stroke-width:0.5;" x1="1015.81" x2="1128.1918" y1="1122.0169" y2="1122.0169"/><text fill="#000000" font-family="sans-serif" font-size="14" lengthAdjust="spacing" textLength="102.3818" x="1020.81" y="1139.012">#name: String</text></g><!--class ClientPolicy--><g class="entity" data-entity="ClientPolicy" data-source-line="76" data-uid="ent0015" id="entity_ClientPolicy"><rect fill="#F1F1F1" height="88.8906" rx="2.5" ry="2.5" style="stroke:#181818;stroke-width:0.5;" width="226.1494" x="958.93" y="1207.3169"/><ellipse cx="1027.1048" cy="1223.3169" fill="#ADD1B2" rx="11" ry="11" style="stroke:#181818;stroke-width:1;"/><path d="M1030.0736,1228.9575 Q1029.4954,1229.2544 1028.8548,1229.395 Q1028.2142,1229.5513 1027.5111,1229.5513 Q1025.0111,1229.5513 1023.6829,1227.9106 Q1022.3704,1226.2544 1022.3704,1223.1294 Q1022.3704,1220.0044 1023.6829,1218.3481 Q1025.0111,1216.6919 1027.5111,1216.6919 Q1028.2142,1216.6919 1028.8548,1216.8481 Q1029.5111,1217.0044 1030.0736,1217.3013 L1030.0736,1220.02 Q1029.4486,1219.4419 1028.8548,1219.1763 Q1028.2611,1218.895 1027.6361,1218.895 Q1026.2923,1218.895 1025.6048,1219.9731 Q1024.9173,1221.0356 1024.9173,1223.1294 Q1024.9173,1225.2231 1025.6048,1226.3013 Q1026.2923,1227.3638 1027.6361,1227.3638 Q1028.2611,1227.3638 1028.8548,1227.0981 Q1029.4486,1226.8169 1030.0736,1226.2388 L1030.0736,1228.9575 Z " fill="#000000"/><text fill="#000000" font-family="sans-serif" font-size="14" lengthAdjust="spacing" textLength="81.2998" x="1047.6048" y="1228.1636">ClientPolicy</text><line style="stroke:#181818;stroke-width:0.5;" x1="959.93" x2="1184.0794" y1="1239.3169" y2="1239.3169"/><text fill="#000000" font-family="sans-serif" font-size="14" lengthAdjust="spacing" textLength="150.2813" x="964.93" y="1256.312">-startDate: LocalDate</text><text fill="#000000" font-family="sans-serif" font-size="14" lengthAdjust="spacing" textLength="161.3896" x="964.93" y="1272.6089">-expiryDate: LocalDate</text><text fill="#000000" font-family="sans-serif" font-size="14" lengthAdjust="spacing" textLength="214.1494" x="964.93" y="1288.9057">-monthlyPremium: BigDecimal</text></g><!--class PolicyList--><g class="entity" data-entity="PolicyList" data-source-line="81" data-uid="ent0016" id="entity_PolicyList"><rect fill="#F1F1F1" height="80.5938" rx="2.5" ry="2.5" style="stroke:#181818;stroke-width:0.5;" width="301.7822" x="921.11" y="932.4269"/><ellipse cx="1035.13" cy="948.4269" fill="#ADD1B2" rx="11" ry="11" style="stroke:#181818;stroke-width:1;"/><path d="M1038.0988,954.0675 Q1037.5206,954.3644 1036.88,954.505 Q1036.2394,954.6613 1035.5363,954.6613 Q1033.0363,954.6613 1031.7081,953.0206 Q1030.3956,951.3644 1030.3956,948.2394 Q1030.3956,945.1144 1031.7081,943.4581 Q1033.0363,941.8019 1035.5363,941.8019 Q1036.2394,941.8019 1036.88,941.9581 Q1037.5363,942.1144 1038.0988,942.4113 L1038.0988,945.13 Q1037.4738,944.5519 1036.88,944.2863 Q1036.2863,944.005 1035.6613,944.005 Q1034.3175,944.005 1033.63,945.0831 Q1032.9425,946.1456 1032.9425,948.2394 Q1032.9425,950.3331 1033.63,951.4113 Q1034.3175,952.4738 1035.6613,952.4738 Q1036.2863,952.4738 1036.88,952.2081 Q1037.4738,951.9269 1038.0988,951.3488 L1038.0988,954.0675 Z " fill="#000000"/><text fill="#000000" font-family="sans-serif" font-size="14" lengthAdjust="spacing" textLength="65.2422" x="1055.63" y="953.2736">PolicyList</text><line style="stroke:#181818;stroke-width:0.5;" x1="922.11" x2="1221.8922" y1="964.4269" y2="964.4269"/><text fill="#000000" font-family="sans-serif" font-size="14" lengthAdjust="spacing" textLength="193.6006" x="927.11" y="981.422">-policies: ArrayList&lt;Policy&gt;</text><line style="stroke:#181818;stroke-width:0.5;" x1="922.11" x2="1221.8922" y1="988.7238" y2="988.7238"/><text fill="#000000" font-family="sans-serif" font-size="14" lengthAdjust="spacing" textLength="289.7822" x="927.11" y="1005.7189">+findPolicyByName(name: String): Policy</text></g><!--class ListContainer--><g class="entity" data-entity="ListContainer" data-source-line="82" data-uid="ent0017" id="entity_ListContainer"><rect fill="#F1F1F1" height="32" rx="2.5" ry="2.5" style="stroke:#181818;stroke-width:0.5;" width="124.8867" x="1011.56" y="731.9369"/><ellipse cx="1026.56" cy="747.9369" fill="#B4A7E5" rx="11" ry="11" style="stroke:#181818;stroke-width:1;"/><path d="M1022.4819,743.7025 L1022.4819,741.5463 L1029.8725,741.5463 L1029.8725,743.7025 L1027.4038,743.7025 L1027.4038,751.7806 L1029.8725,751.7806 L1029.8725,753.9369 L1022.4819,753.9369 L1022.4819,751.7806 L1024.9506,751.7806 L1024.9506,743.7025 L1022.4819,743.7025 Z " fill="#000000"/><text fill="#000000" font-family="sans-serif" font-size="14" font-style="italic" lengthAdjust="spacing" textLength="92.8867" x="1040.56" y="752.7836">ListContainer</text></g><!--class MeetingList--><g class="entity" data-entity="MeetingList" data-source-line="88" data-uid="ent0019" id="entity_MeetingList"><rect fill="#F1F1F1" height="32" rx="2.5" ry="2.5" style="stroke:#181818;stroke-width:0.5;" width="112.917" x="1685.54" y="956.7269"/><ellipse cx="1700.54" cy="972.7269" fill="#ADD1B2" rx="11" ry="11" style="stroke:#181818;stroke-width:1;"/><path d="M1703.5088,978.3675 Q1702.9306,978.6644 1702.29,978.805 Q1701.6494,978.9613 1700.9463,978.9613 Q1698.4463,978.9613 1697.1181,977.3206 Q1695.8056,975.6644 1695.8056,972.5394 Q1695.8056,969.4144 1697.1181,967.7581 Q1698.4463,966.1019 1700.9463,966.1019 Q1701.6494,966.1019 1702.29,966.2581 Q1702.9463,966.4144 1703.5088,966.7113 L1703.5088,969.43 Q1702.8838,968.8519 1702.29,968.5863 Q1701.6963,968.305 1701.0713,968.305 Q1699.7275,968.305 1699.04,969.3831 Q1698.3525,970.4456 1698.3525,972.5394 Q1698.3525,974.6331 1699.04,975.7113 Q1699.7275,976.7738 1701.0713,976.7738 Q1701.6963,976.7738 1702.29,976.5081 Q1702.8838,976.2269 1703.5088,975.6488 L1703.5088,978.3675 Z " fill="#000000"/><text fill="#000000" font-family="sans-serif" font-size="14" lengthAdjust="spacing" textLength="80.917" x="1714.54" y="977.5736">MeetingList</text></g><!--class ListContainer--><g class="entity" data-entity="ListContainer" data-source-line="88" data-uid="ent0020" id="entity_ListContainer"><rect fill="#F1F1F1" height="32" rx="2.5" ry="2.5" style="stroke:#181818;stroke-width:0.5;" width="124.8867" x="1411.56" y="731.9369"/><ellipse cx="1426.56" cy="747.9369" fill="#B4A7E5" rx="11" ry="11" style="stroke:#181818;stroke-width:1;"/><path d="M1422.4819,743.7025 L1422.4819,741.5463 L1429.8725,741.5463 L1429.8725,743.7025 L1427.4038,743.7025 L1427.4038,751.7806 L1429.8725,751.7806 L1429.8725,753.9369 L1422.4819,753.9369 L1422.4819,751.7806 L1424.9506,751.7806 L1424.9506,743.7025 L1422.4819,743.7025 Z " fill="#000000"/><text fill="#000000" font-family="sans-serif" font-size="14" font-style="italic" lengthAdjust="spacing" textLength="92.8867" x="1440.56" y="752.7836">ListContainer</text></g><!--class TaskList--><g class="entity" data-entity="TaskList" data-source-line="89" data-uid="ent0022" id="entity_TaskList"><rect fill="#F1F1F1" height="32" rx="2.5" ry="2.5" style="stroke:#181818;stroke-width:0.5;" width="89.0049" x="1557.5" y="956.7269"/><ellipse cx="1572.5" cy="972.7269" fill="#ADD1B2" rx="11" ry="11" style="stroke:#181818;stroke-width:1;"/><path d="M1575.4688,978.3675 Q1574.8906,978.6644 1574.25,978.805 Q1573.6094,978.9613 1572.9063,978.9613 Q1570.4063,978.9613 1569.0781,977.3206 Q1567.7656,975.6644 1567.7656,972.5394 Q1567.7656,969.4144 1569.0781,967.7581 Q1570.4063,966.1019 1572.9063,966.1019 Q1573.6094,966.1019 1574.25,966.2581 Q1574.9063,966.4144 1575.4688,966.7113 L1575.4688,969.43 Q1574.8438,968.8519 1574.25,968.5863 Q1573.6563,968.305 1573.0313,968.305 Q1571.6875,968.305 1571,969.3831 Q1570.3125,970.4456 1570.3125,972.5394 Q1570.3125,974.6331 1571,975.7113 Q1571.6875,976.7738 1573.0313,976.7738 Q1573.6563,976.7738 1574.25,976.5081 Q1574.8438,976.2269 1575.4688,975.6488 L1575.4688,978.3675 Z " fill="#000000"/><text fill="#000000" font-family="sans-serif" font-size="14" lengthAdjust="spacing" textLength="57.0049" x="1586.5" y="977.5736">TaskList</text></g><!--class UserList--><g class="entity" data-entity="UserList" data-source-line="90" data-uid="ent0024" id="entity_UserList"><rect fill="#F1F1F1" height="32" rx="2.5" ry="2.5" style="stroke:#181818;stroke-width:0.5;" width="88.3828" x="1432.81" y="956.7269"/><ellipse cx="1447.81" cy="972.7269" fill="#ADD1B2" rx="11" ry="11" style="stroke:#181818;stroke-width:1;"/><path d="M1450.7788,978.3675 Q1450.2006,978.6644 1449.56,978.805 Q1448.9194,978.9613 1448.2163,978.9613 Q1445.7163,978.9613 1444.3881,977.3206 Q1443.0756,975.6644 1443.0756,972.5394 Q1443.0756,969.4144 1444.3881,967.7581 Q1445.7163,966.1019 1448.2163,966.1019 Q1448.9194,966.1019 1449.56,966.2581 Q1450.2163,966.4144 1450.7788,966.7113 L1450.7788,969.43 Q1450.1538,968.8519 1449.56,968.5863 Q1448.9663,968.305 1448.3413,968.305 Q1446.9975,968.305 1446.31,969.3831 Q1445.6225,970.4456 1445.6225,972.5394 Q1445.6225,974.6331 1446.31,975.7113 Q1446.9975,976.7738 1448.3413,976.7738 Q1448.9663,976.7738 1449.56,976.5081 Q1450.1538,976.2269 1450.7788,975.6488 L1450.7788,978.3675 Z " fill="#000000"/><text fill="#000000" font-family="sans-serif" font-size="14" lengthAdjust="spacing" textLength="56.3828" x="1461.81" y="977.5736">UserList</text></g><!--reverse link ListContainer to PolicyList--><g class="link" data-entity-1="ListContainer" data-entity-2="PolicyList" data-source-line="82" data-uid="lnk18" id="link_ListContainer_PolicyList"><path d="M1073.7022,782.2562 C1073.4022,816.4662 1072.81,882.0169 1072.36,932.0269" fill="none" id="ListContainer-backto-PolicyList" style="stroke:#181818;stroke-width:1;stroke-dasharray:7,7;"/><polygon fill="none" points="1073.86,764.2569,1067.7024,782.2036,1079.7019,782.3088,1073.86,764.2569" style="stroke:#181818;stroke-width:1;"/></g><!--reverse link ListContainer to MeetingList--><g class="link" data-entity-1="ListContainer" data-entity-2="MeetingList" data-source-line="88" data-uid="lnk21" id="link_ListContainer_MeetingList"><path d="M1506.2619,775.7635 C1555.2219,816.4635 1674.34,915.4769 1723.45,956.3069" fill="none" id="ListContainer-backto-MeetingList" style="stroke:#181818;stroke-width:1;stroke-dasharray:7,7;"/><polygon fill="none" points="1492.42,764.2569,1502.4263,780.3775,1510.0974,771.1495,1492.42,764.2569" style="stroke:#181818;stroke-width:1;"/></g><!--reverse link ListContainer to TaskList--><g class="link" data-entity-1="ListContainer" data-entity-2="TaskList" data-source-line="89" data-uid="lnk23" id="link_ListContainer_TaskList"><path d="M1491.766,779.8649 C1515.146,820.5649 1569.69,915.4769 1593.14,956.3069" fill="none" id="ListContainer-backto-TaskList" style="stroke:#181818;stroke-width:1;stroke-dasharray:7,7;"/><polygon fill="none" points="1482.8,764.2569,1486.5633,782.8536,1496.9687,776.8763,1482.8,764.2569" style="stroke:#181818;stroke-width:1;"/></g><!--reverse link ListContainer to UserList--><g class="link" data-entity-1="ListContainer" data-entity-2="UserList" data-source-line="90" data-uid="lnk25" id="link_ListContainer_UserList"><path d="M1474.4488,782.2553 C1474.9888,822.9553 1476.24,915.4769 1476.79,956.3069" fill="none" id="ListContainer-backto-UserList" style="stroke:#181818;stroke-width:1;stroke-dasharray:7,7;"/><polygon fill="none" points="1474.21,764.2569,1468.4493,782.3349,1480.4483,782.1757,1474.21,764.2569" style="stroke:#181818;stroke-width:1;"/></g><!--link ClientList to ListContainer--><g class="link" data-entity-1="ClientList" data-entity-2="ListContainer" data-source-line="95" data-uid="lnk26" id="link_ClientList_ListContainer"><path codeLine="95" d="M865.18,490.3469 C1050.52,509.9269 1284.94,543.8669 1367,595.4569 C1420.7,629.2169 1448.1848,684.1165 1461.1948,715.2765" fill="none" id="ClientList-to-ListContainer" style="stroke:#181818;stroke-width:1;stroke-dasharray:7,7;"/><polygon fill="none" points="1468.13,731.8869,1466.7316,712.9648,1455.658,717.5883,1468.13,731.8869" style="stroke:#181818;stroke-width:1;"/></g><!--link ArchivedClientList to ListContainer--><g class="link" data-entity-1="ArchivedClientList" data-entity-2="ListContainer" data-source-line="96" data-uid="lnk27" id="link_ArchivedClientList_ListContainer"><path codeLine="96" d="M272.4,525.0869 C295.82,540.8369 322.87,556.1869 350,565.4569 C505.29,618.5069 554.5,581.4169 718,595.4569 C949.64,615.3469 1013.97,583.9969 1239,642.4569 C1318.3,663.0569 1388.9348,699.048 1431.4848,722.748" fill="none" id="ArchivedClientList-to-ListContainer" style="stroke:#181818;stroke-width:1;stroke-dasharray:7,7;"/><polygon fill="none" points="1447.21,731.5069,1434.4044,717.5063,1428.5652,727.9898,1447.21,731.5069" style="stroke:#181818;stroke-width:1;"/></g><!--reverse link ClientList to Client--><g class="link" data-entity-1="ClientList" data-entity-2="Client" data-source-line="99" data-uid="lnk28" id="link_ClientList_Client"><path codeLine="99" d="M617.1661,577.7367 C618.0761,593.3967 618.81,597.4269 621,612.4569 C622.41,622.1269 624.25,632.0969 626.35,642.0469" fill="none" id="ClientList-backto-Client" style="stroke:#181818;stroke-width:1;"/><polygon fill="#181818" points="616.47,565.7569,612.8248,571.9788,617.1661,577.7367,620.8113,571.5147,616.47,565.7569" style="stroke:#181818;stroke-width:1;"/><text fill="#000000" font-family="sans-serif" font-size="13" lengthAdjust="spacing" textLength="8.271" x="608.2204" y="585.5494">1</text><text fill="#000000" font-family="sans-serif" font-size="13" lengthAdjust="spacing" textLength="23.0356" x="600.5867" y="631.4995">0..*</text></g><!--link ClientList to Client--><g class="link" data-entity-1="ClientList" data-entity-2="Client" data-source-line="113" data-uid="lnk37" id="link_ClientList_Client"><path codeLine="113" d="M629.93,565.8969 C633.47,590.4869 636.4338,611.0783 640.0338,636.0483" fill="none" id="ClientList-to-Client" style="stroke:#181818;stroke-width:1;stroke-dasharray:7,7;"/><polygon fill="#181818" points="640.89,641.9869,643.5648,632.5082,640.1765,637.038,635.6467,633.6498,640.89,641.9869" style="stroke:#181818;stroke-width:1;"/><polygon fill="#000000" points="641.7128,608.9722,643.3323,599.6005,637.5144,600.4385,641.7128,608.9722" style="stroke:#000000;stroke-width:1;"/><text fill="#000000" font-family="sans-serif" font-size="13" lengthAdjust="spacing" textLength="59.8584" x="650" y="608.5238">manages</text></g><!--reverse link ArchivedClientList to Client--><g class="link" data-entity-1="ArchivedClientList" data-entity-2="Client" data-source-line="100" data-uid="lnk29" id="link_ArchivedClientList_Client"><path codeLine="100" d="M296.5919,531.5459 C317.2419,544.9659 329.3,552.5869 350,565.4569 C390.65,590.7269 434.74,617.3269 476.45,642.1469" fill="none" id="ArchivedClientList-backto-Client" style="stroke:#181818;stroke-width:1;"/><polygon fill="#181818" points="286.53,525.0069,289.3813,531.6303,296.5919,531.5459,293.7406,524.9224,286.53,525.0069" style="stroke:#181818;stroke-width:1;"/><text fill="#000000" font-family="sans-serif" font-size="13" lengthAdjust="spacing" textLength="8.271" x="288.3611" y="544.9289">1</text><text fill="#000000" font-family="sans-serif" font-size="13" lengthAdjust="spacing" textLength="23.0356" x="440.0184" y="631.2524">0..*</text></g><!--link ArchivedClientList to Client--><g class="link" data-entity-1="ArchivedClientList" data-entity-2="Client" data-source-line="116" data-uid="lnk40" id="link_ArchivedClientList_Client"><path codeLine="116" d="M282.2,525.1069 C303.75,539.0969 327.36,553.4969 350,565.4569 C380.65,581.6469 391.33,579.3069 422,595.4569 C448.66,609.4969 471.0854,622.4875 497.4954,638.9175" fill="none" id="ArchivedClientList-to-Client" style="stroke:#181818;stroke-width:1;stroke-dasharray:7,7;"/><polygon fill="#181818" points="502.59,642.0869,497.0611,633.9364,498.3445,639.4457,492.8352,640.7292,502.59,642.0869" style="stroke:#181818;stroke-width:1;"/><polygon fill="#000000" points="458.4204,606.36,451.7973,599.5346,449.0503,604.7311,458.4204,606.36" style="stroke:#000000;stroke-width:1;"/><text fill="#000000" font-family="sans-serif" font-size="13" lengthAdjust="spacing" textLength="59.8584" x="463" y="608.5238">manages</text></g><!--reverse link Client to PolicyList--><g class="link" data-entity-1="Client" data-entity-2="PolicyList" data-source-line="101" data-uid="lnk30" id="link_Client_PolicyList"><path codeLine="101" d="M844.813,859.6627 C874.533,876.3527 894.74,887.2269 924,902.4269 C943.26,912.4269 964.23,922.6469 984.16,932.0469" fill="none" id="Client-backto-PolicyList" style="stroke:#181818;stroke-width:1;"/><polygon fill="#181818" points="834.35,853.7869,837.6229,860.2124,844.813,859.6627,841.5401,853.2371,834.35,853.7869" style="stroke:#181818;stroke-width:1;"/><text fill="#000000" font-family="sans-serif" font-size="13" lengthAdjust="spacing" textLength="8.271" x="838.0736" y="873.4736">1</text><text fill="#000000" font-family="sans-serif" font-size="13" lengthAdjust="spacing" textLength="8.271" x="961.5444" y="921.4462">1</text></g><!--link Client to PolicyList--><g class="link" data-entity-1="Client" data-entity-2="PolicyList" data-source-line="117" data-uid="lnk41" id="link_Client_PolicyList"><path codeLine="117" d="M769.67,853.9169 C792.8,871.8369 817.81,888.9669 843,902.4269 C867.18,915.3369 888.4358,924.2859 915.0958,933.2959" fill="none" id="Client-to-PolicyList" style="stroke:#181818;stroke-width:1;stroke-dasharray:7,7;"/><polygon fill="#181818" points="920.78,935.2169,913.5344,928.5459,916.0432,933.616,910.9731,936.1248,920.78,935.2169" style="stroke:#181818;stroke-width:1;"/><polygon fill="#000000" points="852.3888,896.3888,845.8575,889.4756,843.0413,894.6349,852.3888,896.3888" style="stroke:#000000;stroke-width:1;"/><text fill="#000000" font-family="sans-serif" font-size="13" lengthAdjust="spacing" textLength="29.7832" x="857" y="898.4938">uses</text></g><!--link LookUpTable to ClientList--><g class="link" data-entity-1="LookUpTable" data-entity-2="ClientList" data-source-line="105" data-uid="lnk31" id="link_LookUpTable_ClientList"><path codeLine="105" d="M1027.53,274.9069 C969.03,302.2269 898.9761,334.9474 828.6561,367.7974" fill="none" id="LookUpTable-to-ClientList" style="stroke:#181818;stroke-width:1;"/><polygon fill="#181818" points="823.22,370.3369,833.0671,370.1517,827.7501,368.2206,829.6812,362.9036,823.22,370.3369" style="stroke:#181818;stroke-width:1;"/></g><!--link LookUpTable to ArchivedClientList--><g class="link" data-entity-1="LookUpTable" data-entity-2="ArchivedClientList" data-source-line="106" data-uid="lnk32" id="link_LookUpTable_ArchivedClientList"><path codeLine="106" d="M1025.53,274.9569 C989.66,289.1969 948.77,303.0469 910,310.7869 C848.95,322.9669 407.51,303.9569 350,327.7869 C307.94,345.2069 274.6213,375.9243 248.0113,406.6043" fill="none" id="LookUpTable-to-ArchivedClientList" style="stroke:#181818;stroke-width:1;"/><polygon fill="#181818" points="244.08,411.1369,252.9987,406.9588,247.3561,407.3597,246.9552,401.7171,244.08,411.1369" style="stroke:#181818;stroke-width:1;"/></g><!--link LookUpTable to PolicyList--><g class="link" data-entity-1="LookUpTable" data-entity-2="PolicyList" data-source-line="107" data-uid="lnk33" id="link_LookUpTable_PolicyList"><path codeLine="107" d="M1143.86,274.7469 C1173.39,385.0769 1233.55,664.7069 1154,877.4269 C1146.4,897.7469 1136.3356,912.2015 1121.8756,927.6115" fill="none" id="LookUpTable-to-PolicyList" style="stroke:#181818;stroke-width:1;"/><polygon fill="#181818" points="1117.77,931.9869,1126.8454,928.1609,1121.1914,928.3407,1121.0115,922.6867,1117.77,931.9869" style="stroke:#181818;stroke-width:1;"/></g><!--link LookUpTable to MeetingList--><g class="link" data-entity-1="LookUpTable" data-entity-2="MeetingList" data-source-line="108" data-uid="lnk34" id="link_LookUpTable_MeetingList"><path codeLine="108" d="M1332.2,260.2669 C1413.68,277.3269 1495.39,300.3269 1525,327.7869 C1721.79,510.2869 1740.0646,870.9582 1741.7246,950.3482" fill="none" id="LookUpTable-to-MeetingList" style="stroke:#181818;stroke-width:1;"/><polygon fill="#181818" points="1741.85,956.3469,1745.661,947.2652,1741.7455,951.348,1737.6627,947.4325,1741.85,956.3469" style="stroke:#181818;stroke-width:1;"/></g><!--link LookUpTable to TaskList--><g class="link" data-entity-1="LookUpTable" data-entity-2="TaskList" data-source-line="109" data-uid="lnk35" id="link_LookUpTable_TaskList"><path codeLine="109" d="M1332.04,273.2769 C1365.46,287.0569 1397.97,304.8569 1425,327.7869 C1546.06,430.4769 1553.41,488.9869 1594,642.4569 C1625,759.6469 1610.891,902.5941 1604.871,950.3141" fill="none" id="LookUpTable-to-TaskList" style="stroke:#181818;stroke-width:1;"/><polygon fill="#181818" points="1604.12,956.2669,1609.215,947.8383,1604.7458,951.3062,1601.2779,946.837,1604.12,956.2669" style="stroke:#181818;stroke-width:1;"/></g><!--link LookUpTable to UserList--><g class="link" data-entity-1="LookUpTable" data-entity-2="UserList" data-source-line="110" data-uid="lnk36" id="link_LookUpTable_UserList"><path codeLine="110" d="M1208.62,274.9769 C1310.67,342.3669 1483.93,475.7169 1554,642.4569 C1594.46,738.7369 1589.06,779.0569 1554,877.4269 C1542.43,909.8769 1518.832,935.2145 1499.972,952.2545" fill="none" id="LookUpTable-to-UserList" style="stroke:#181818;stroke-width:1;"/><polygon fill="#181818" points="1495.52,956.2769,1504.8796,953.2113,1499.23,952.9249,1499.5164,947.2753,1495.52,956.2769" style="stroke:#181818;stroke-width:1;"/></g><!--link ClientList to PolicyList--><g class="link" data-entity-1="ClientList" data-entity-2="PolicyList" data-source-line="114" data-uid="lnk38" id="link_ClientList_PolicyList"><path codeLine="114" d="M800.71,565.8569 C830.39,587.8369 858.4,613.4269 880,642.4569 C945.05,729.8769 888.37,787.5669 950,877.4269 C964.54,898.6169 980.4945,913.6247 1000.8045,928.5447" fill="none" id="ClientList-to-PolicyList" style="stroke:#181818;stroke-width:1;stroke-dasharray:7,7;"/><polygon fill="#181818" points="1005.64,932.0969,1000.7549,923.5449,1001.6104,929.1367,996.0186,929.9922,1005.64,932.0969" style="stroke:#181818;stroke-width:1;"/><polygon fill="#000000" points="957.4153,752.3812,955.6193,743.0418,950.4727,745.8811,957.4153,752.3812" style="stroke:#000000;stroke-width:1;"/><text fill="#000000" font-family="sans-serif" font-size="13" lengthAdjust="spacing" textLength="29.7832" x="964" y="752.5038">uses</text></g><!--link ClientList to ClientPolicy--><g class="link" data-entity-1="ClientList" data-entity-2="ClientPolicy" data-source-line="115" data-uid="lnk39" id="link_ClientList_ClientPolicy"><path codeLine="115" d="M865,498.8069 C966.31,522.6069 1077.33,565.4269 1154,642.4569 C1273.27,762.2869 1290.7,851.7269 1240,1013.0169 C1215.98,1089.4369 1161.3788,1157.9664 1120.1688,1202.4264" fill="none" id="ClientList-to-ClientPolicy" style="stroke:#181818;stroke-width:1;stroke-dasharray:7,7;"/><polygon fill="#181818" points="1116.09,1206.8269,1125.1418,1202.9454,1119.489,1203.1599,1119.2745,1197.5071,1116.09,1206.8269" style="stroke:#181818;stroke-width:1;"/><polygon fill="#000000" points="1270.7046,977.4937,1270.3838,967.9886,1264.8581,969.9925,1270.7046,977.4937" style="stroke:#000000;stroke-width:1;"/><text fill="#000000" font-family="sans-serif" font-size="13" lengthAdjust="spacing" textLength="48.3247" x="1278" y="977.2938">creates</text></g><!--link Client to ClientPolicy--><g class="link" data-entity-1="Client" data-entity-2="ClientPolicy" data-source-line="118" data-uid="lnk42" id="link_Client_ClientPolicy"><path codeLine="118" d="M742.95,853.8369 C833.46,963.0169 967.0509,1124.1575 1031.8809,1202.3675" fill="none" id="Client-to-ClientPolicy" style="stroke:#181818;stroke-width:1;stroke-dasharray:7,7;"/><polygon fill="#181818" points="1035.71,1206.9869,1033.046,1197.5052,1032.5191,1203.1374,1026.8868,1202.6106,1035.71,1206.9869" style="stroke:#181818;stroke-width:1;"/><polygon fill="#000000" points="920.1911,1055.4326,916.6809,1046.5935,912.1558,1050.3448,920.1911,1055.4326" style="stroke:#000000;stroke-width:1;"/><text fill="#000000" font-family="sans-serif" font-size="13" lengthAdjust="spacing" textLength="29.7832" x="926" y="1056.0838">uses</text></g><!--link ClientList to FinanceProPlusException--><g class="link" data-entity-1="ClientList" data-entity-2="FinanceProPlusException" data-source-line="121" data-uid="lnk43" id="link_ClientList_FinanceProPlusException"><path codeLine="121" d="M429.4,565.8569 C405.42,587.3869 385.05,612.8069 373,642.4569 C327.09,755.4269 344.2153,902.4155 351.5653,950.6055" fill="none" id="ClientList-to-FinanceProPlusException" style="stroke:#181818;stroke-width:1;stroke-dasharray:7,7;"/><polygon fill="#181818" points="352.47,956.5369,355.0673,947.0367,351.7161,951.594,347.1587,948.2429,352.47,956.5369" style="stroke:#181818;stroke-width:1;"/><polygon fill="#000000" points="377.0086,752.904,381.6826,744.6213,375.9215,743.4558,377.0086,752.904" style="stroke:#000000;stroke-width:1;"/><text fill="#000000" font-family="sans-serif" font-size="13" lengthAdjust="spacing" textLength="44.04" x="387" y="752.5038">throws</text></g><!--link ArchivedClientList to FinanceProPlusException--><g class="link" data-entity-1="ArchivedClientList" data-entity-2="FinanceProPlusException" data-source-line="122" data-uid="lnk44" id="link_ArchivedClientList_FinanceProPlusException"><path codeLine="122" d="M197.3,525.1269 C192.9,607.2169 194.17,762.8869 253,877.4269 C270.63,911.7469 301.0958,936.637 325.1958,952.997" fill="none" id="ArchivedClientList-to-FinanceProPlusException" style="stroke:#181818;stroke-width:1;stroke-dasharray:7,7;"/><polygon fill="#181818" points="330.16,956.3669,324.9603,948.0025,326.0231,953.5586,320.467,954.6215,330.16,956.3669" style="stroke:#181818;stroke-width:1;"/><polygon fill="#000000" points="259.432,752.7938,259.6573,743.2859,254.0257,744.9693,259.432,752.7938" style="stroke:#000000;stroke-width:1;"/><text fill="#000000" font-family="sans-serif" font-size="13" lengthAdjust="spacing" textLength="44.04" x="267" y="752.5038">throws</text></g><!--link Client to FinanceProPlusException--><g class="link" data-entity-1="Client" data-entity-2="FinanceProPlusException" data-source-line="123" data-uid="lnk45" id="link_Client_FinanceProPlusException"><path codeLine="123" d="M514.31,853.8069 C460.34,893.7569 409.6632,931.268 380.5532,952.808" fill="none" id="Client-to-FinanceProPlusException" style="stroke:#181818;stroke-width:1;stroke-dasharray:7,7;"/><polygon fill="#181818" points="375.73,956.3769,385.344,954.239,379.7493,953.4028,380.5855,947.8081,375.73,956.3769" style="stroke:#181818;stroke-width:1;"/><polygon fill="#000000" points="470.9811,896.9679,479.9998,893.949,476.5029,889.2245,470.9811,896.9679" style="stroke:#000000;stroke-width:1;"/><text fill="#000000" font-family="sans-serif" font-size="13" lengthAdjust="spacing" textLength="44.04" x="484" y="898.4938">throws</text></g><!--reverse link Policy to ClientPolicy--><g class="link" data-entity-1="Policy" data-entity-2="ClientPolicy" data-source-line="126" data-uid="lnk46" id="link_Policy_ClientPolicy"><path codeLine="126" d="M1072,1164.7569 C1072,1182.1669 1072,1187.0369 1072,1206.8969" fill="none" id="Policy-backto-ClientPolicy" style="stroke:#181818;stroke-width:1;"/><polygon fill="none" points="1072,1146.7569,1066,1164.7569,1078,1164.7569,1072,1146.7569" style="stroke:#181818;stroke-width:1;"/></g><!--reverse link PolicyList to Policy--><g class="link" data-entity-1="PolicyList" data-entity-2="Policy" data-source-line="127" data-uid="lnk47" id="link_PolicyList_Policy"><path codeLine="127" d="M1072,1025.2969 C1072,1049.5169 1072,1067.8969 1072,1089.5269" fill="none" id="PolicyList-backto-Policy" style="stroke:#181818;stroke-width:1;"/><polygon fill="#181818" points="1072,1013.2969,1068,1019.2969,1072,1025.2969,1076,1019.2969,1072,1013.2969" style="stroke:#181818;stroke-width:1;"/><text fill="#000000" font-family="sans-serif" font-size="13" lengthAdjust="spacing" textLength="8.271" x="1063.3839" y="1033.036">1</text><text fill="#000000" font-family="sans-serif" font-size="13" lengthAdjust="spacing" textLength="23.0356" x="1046.6316" y="1079.1539">0..*</text></g><!--SRC=[hLPTJ-iu47tFhnYn3uGBhUw-HbKbeFTgaO2jLFW1hZCqLfCuiXsWo-M_xpXE6kUZfQkzVMXJp_7CcPdZSOmmASBpmptSfanhM0YsKIo35wdWfyXPpd6fv2LP1UO67bZEDfZHOn2SmmeDwAt8eM2q1mqgNMrSew5dKCXYjXQfCBl0mYeKS1ldsXWbrgN1EoxpbVW7uRi7AHZVKfYLsH4tXTpqjw_8FKgpA_pzYOWHzDxY_cDMc1racAs9N104jMlGY74vZSijJic3OI8dmXy1q4VavEE5SOHxeSrjpse_by3Y-CvW5ZArAMqrT0GhoYZVN9m2keBKznnr0_akOaofh5-7iluiIeV-Aa-GRnVEHHxZ-uYFoAPRRVaCgf-gld0lvVQvU69hQa2RzmGoLaJm5zF90ojcJJ8TzdCllkSbv9M0AB1Jajrp1OLC1HT8gqlxj7Ehq-dKpsA35JhSuiwZtGbQ9_0vtbydtGyllPP39xiznskbM4Lcvf1jKfE9nwnr4_RwxYnrqatE9sgZs9VYDmZZHUGrcPlTen8ypEdBAwEpTOcvNZp9EeaHYXdnMPv2ionYPj11Vqfro6EltGtXkuM5wiDqp-5laz3HfDcJo5Y3p0HDdjWD8OMlTl8Cj7sjU29UCJuW0jOndow6eTkkA9pvIs4er4Qg1YViiQtEw6zA_jO_32xXd4PtKs9_sHEAjrmaCiV7qixJTdRK9ayHhJgE7Pt_fQqFRPWH_DFUFheks089b-gwllK_JpyqjiQq7ZhgJOdTeXyhORg3VFHgHcxNKgR8yZ4Ljwc45wDbkOHNWMyDyOkZempVEHP6oBmppTfxUfcM-iSUCvj1-EDAONm1ytcze_9y3ikKxhT4fZ7fftA2cfhvWafP0Ib9zooL7DyD60awaM-aovHPhpeHXHxZvWhJ8RRqb-pdZw7OFWVY7EoQqAtEb5dG924vICvI- -YPyRqGQdVOdb4kIRfRAin4cKLm8pOBv29ZwO12so0GMP5Mhphwu8l0nBl1sZ7XVCnxKzYjtbJI2VEkVfpjlpN8lwAfMTgeajFa25mU3uY6V1zDf8O-CRqz1VUiKHt71PRvNMEjv185tfYTJd_DUrj6Xl48YjpUogoGMWnydlrv1jyc4pZxFfr-Esjcv8ZRSM0z3_T6-lNEg0ryhRNaeax6B_faClVU00Qc8OK1n8lKDtdz6zYQXWqCJOSixGKMI9T7JbEjsuA6D4GqQktRl8Pv7-6TWWXAFGRfdDK8EBticmetsj4ZGRy8E1Qi1b2MxR0hDNdjapmq6ICmYP9lH-YUiDFZTmBQdeoShcjXB3AeSvdz8j7vsGLU9NgATPP_0G00]--></g></svg>