<svg xmlns="http://www.w3.org/2000/svg" xmlns:xlink="http://www.w3.org/1999/xlink" contentStyleType="text/css" data-diagram-type="SEQUENCE" height="541.1px" preserveAspectRatio="none" style="width:674px;height:541px;background:#FFFFFF;" version="1.1" viewBox="0 0 674 541" width="674.1px" zoomAndPan="magnify"><title>Sequence Diagram: Command Parsing</title><defs/><g><text fill="#000000" font-family="sans-serif" font-size="9.8" font-weight="bold" lengthAdjust="spacing" textLength="180.8023" x="245.9334" y="21.0752">Sequence Diagram: Command Parsing</text><g><title>.UI</title><rect fill="#FFFFFF" height="361.2178" style="stroke:#181818;stroke-width:0.7;" width="7" x="139.5584" y="109.5732"/></g><g><title>.Parser</title><rect fill="#FFFFFF" height="291.3066" style="stroke:#181818;stroke-width:0.7;" width="7" x="247.8267" y="131.477"/></g><g><title>.Parser</title><rect fill="#FFFFFF" height="17.5" style="stroke:#181818;stroke-width:0.7;" width="7" x="251.3267" y="209.2918"/></g><g><title>.ClientParser</title><rect fill="#FFFFFF" height="140.2844" style="stroke:#181818;stroke-width:0.7;" width="7" x="456.6075" y="260.5955"/></g><g><title>.AddCommand</title><rect fill="#FFFFFF" height="49.6385" style="stroke:#181818;stroke-width:0.7;" width="7" x="628.7866" y="329.3377"/></g><g><title>Financial Advisor</title><rect fill="#000000" fill-opacity="0.00000" height="397.1215" width="5.6" x="40.1099" y="86.2695"/><line style="stroke:#181818;stroke-width:0.35;stroke-dasharray:3.5,3.5;" x1="42.7" x2="42.7" y1="86.2695" y2="483.391"/></g><g><title>.UI</title><rect fill="#000000" fill-opacity="0.00000" height="397.1215" width="5.6" x="140.2584" y="86.2695"/><line style="stroke:#181818;stroke-width:0.35;stroke-dasharray:3.5,3.5;" x1="142.397" x2="142.397" y1="86.2695" y2="483.391"/></g><g><title>.Parser</title><rect fill="#000000" fill-opacity="0.00000" height="397.1215" width="5.6" x="248.5267" y="86.2695"/><line style="stroke:#181818;stroke-width:0.35;stroke-dasharray:3.5,3.5;" x1="250.9333" x2="250.9333" y1="86.2695" y2="483.391"/></g><g><title>.ClientParser</title><rect fill="#000000" fill-opacity="0.00000" height="223.8318" width="5.6" x="457.3075" y="259.5592"/><line style="stroke:#181818;stroke-width:0.35;stroke-dasharray:3.5,3.5;" x1="459.7865" x2="459.7865" y1="259.5592" y2="483.391"/></g><g><title>.AddCommand</title><rect fill="#000000" fill-opacity="0.00000" height="155.0896" width="5.6" x="629.4866" y="328.3014"/><line style="stroke:#181818;stroke-width:0.35;stroke-dasharray:3.5,3.5;" x1="631.804" x2="631.804" y1="328.3014" y2="483.391"/></g><g class="participant participant-head" data-participant="User"><text fill="#000000" font-family="sans-serif" font-size="9.8" lengthAdjust="spacing" textLength="74.6197" x="3.5" y="83.81">Financial Advisor</text><ellipse cx="42.9099" cy="37.1848" fill="#E2E2F0" rx="5.6" ry="5.6" style="stroke:#181818;stroke-width:0.35;"/><path d="M42.9099,42.7848 L42.9099,61.6848 M33.8099,48.3848 L52.0099,48.3848 M42.9099,61.6848 L33.8099,72.1848 M42.9099,61.6848 L52.0099,72.1848" fill="none" style="stroke:#181818;stroke-width:0.35;"/></g><g class="participant participant-tail" data-participant="User"><text fill="#000000" font-family="sans-serif" font-size="9.8" lengthAdjust="spacing" textLength="74.6197" x="3.5" y="493.2662">Financial Advisor</text><ellipse cx="42.9099" cy="501.6758" fill="#E2E2F0" rx="5.6" ry="5.6" style="stroke:#181818;stroke-width:0.35;"/><path d="M42.9099,507.2758 L42.9099,526.1758 M33.8099,512.8758 L52.0099,512.8758 M42.9099,526.1758 L33.8099,536.6758 M42.9099,526.1758 L52.0099,536.6758" fill="none" style="stroke:#181818;stroke-width:0.35;"/></g><g class="participant participant-head" data-participant="UI"><rect fill="#E2E2F0" height="22.8348" rx="1.75" ry="1.75" style="stroke:#181818;stroke-width:0.35;" width="22.3228" x="131.897" y="62.7348"/><text fill="#000000" font-family="sans-serif" font-size="9.8" lengthAdjust="spacing" textLength="12.5228" x="136.797" y="78.21">:UI</text></g><g class="participant participant-tail" data-participant="UI"><rect fill="#E2E2F0" height="22.8348" rx="1.75" ry="1.75" style="stroke:#181818;stroke-width:0.35;" width="22.3228" x="131.897" y="482.691"/><text fill="#000000" font-family="sans-serif" font-size="9.8" lengthAdjust="spacing" textLength="12.5228" x="136.797" y="498.1662">:UI</text></g><g class="participant participant-head" data-participant="Parser"><rect fill="#E2E2F0" height="22.8348" rx="1.75" ry="1.75" style="stroke:#181818;stroke-width:0.35;" width="41.3868" x="230.6333" y="62.7348"/><text fill="#000000" font-family="sans-serif" font-size="9.8" lengthAdjust="spacing" textLength="31.5868" x="235.5333" y="78.21">:Parser</text></g><g class="participant participant-tail" data-participant="Parser"><rect fill="#E2E2F0" height="22.8348" rx="1.75" ry="1.75" style="stroke:#181818;stroke-width:0.35;" width="41.3868" x="230.6333" y="482.691"/><text fill="#000000" font-family="sans-serif" font-size="9.8" lengthAdjust="spacing" textLength="31.5868" x="235.5333" y="498.1662">:Parser</text></g><g class="participant participant-tail" data-participant="ClientParser"><rect fill="#E2E2F0" height="22.8348" rx="1.75" ry="1.75" style="stroke:#181818;stroke-width:0.35;" width="66.4419" x="426.8865" y="482.691"/><text fill="#000000" font-family="sans-serif" font-size="9.8" lengthAdjust="spacing" textLength="56.6419" x="431.7865" y="498.1662">:ClientParser</text></g><g class="participant participant-tail" data-participant="Command"><rect fill="#E2E2F0" height="22.8348" rx="1.75" ry="1.75" style="stroke:#181818;stroke-width:0.35;" width="75.1652" x="594.704" y="482.691"/><text fill="#000000" font-family="sans-serif" font-size="9.8" lengthAdjust="spacing" textLength="65.3652" x="599.604" y="498.1662">:AddCommand</text></g><g><title>.UI</title><rect fill="#FFFFFF" height="361.2178" style="stroke:#181818;stroke-width:0.7;" width="7" x="139.5584" y="109.5732"/></g><g><title>.Parser</title><rect fill="#FFFFFF" height="291.3066" style="stroke:#181818;stroke-width:0.7;" width="7" x="247.8267" y="131.477"/></g><g><title>.Parser</title><rect fill="#FFFFFF" height="17.5" style="stroke:#181818;stroke-width:0.7;" width="7" x="251.3267" y="209.2918"/></g><g><title>.ClientParser</title><rect fill="#FFFFFF" height="140.2844" style="stroke:#181818;stroke-width:0.7;" width="7" x="456.6075" y="260.5955"/></g><g><title>.AddCommand</title><rect fill="#FFFFFF" height="49.6385" style="stroke:#181818;stroke-width:0.7;" width="7" x="628.7866" y="329.3377"/></g><g class="message" data-participant-1="User" data-participant-2="UI"><polygon fill="#181818" points="131.1584,106.7732,138.1584,109.5732,131.1584,112.3732,133.9584,109.5732" style="stroke:#181818;stroke-width:0.7;"/><line style="stroke:#181818;stroke-width:0.7;" x1="42.9099" x2="135.3584" y1="109.5732" y2="109.5732"/><text fill="#000000" font-family="sans-serif" font-size="9.1" lengthAdjust="spacing" textLength="83.3485" x="47.8099" y="105.8894">enters "client add ..."</text></g><g class="message" data-participant-1="UI" data-participant-2="Parser"><polygon fill="#181818" points="239.4267,128.677,246.4267,131.477,239.4267,134.277,242.2267,131.477" style="stroke:#181818;stroke-width:0.7;"/><line style="stroke:#181818;stroke-width:0.7;" x1="146.5584" x2="243.6267" y1="131.477" y2="131.477"/><text fill="#000000" font-family="sans-serif" font-size="9.1" lengthAdjust="spacing" textLength="66.7659" x="151.4584" y="127.7931">parse(userInput)</text></g><path d="M258.3,140.577 L258.3,183.277 L403.9,183.277 L403.9,147.577 L396.9,140.577 L258.3,140.577" fill="#FEFFDD" style="stroke:#181818;stroke-width:0.35;"/><path d="M396.9,140.577 L396.9,147.577 L403.9,147.577 L396.9,140.577" fill="#FEFFDD" style="stroke:#181818;stroke-width:0.35;"/><text fill="#000000" font-family="sans-serif" font-size="9.1" lengthAdjust="spacing" textLength="121.8947" x="262.5" y="153.8968">The selectParserType method</text><text fill="#000000" font-family="sans-serif" font-size="9.1" lengthAdjust="spacing" textLength="131.5057" x="262.5" y="166.0005">is called to determine the correct</text><text fill="#000000" font-family="sans-serif" font-size="9.1" lengthAdjust="spacing" textLength="73.3421" x="262.5" y="178.1042">sub-parser to use.</text><g class="message" data-participant-1="Parser" data-participant-2="Parser"><line style="stroke:#181818;stroke-width:0.7;" x1="254.8267" x2="287.7267" y1="200.1918" y2="200.1918"/><line style="stroke:#181818;stroke-width:0.7;" x1="287.7267" x2="287.7267" y1="200.1918" y2="209.2918"/><line style="stroke:#181818;stroke-width:0.7;" x1="259.0267" x2="287.7267" y1="209.2918" y2="209.2918"/><polygon fill="#181818" points="266.0267,206.4918,259.0267,209.2918,266.0267,212.0918,263.2267,209.2918" style="stroke:#181818;stroke-width:0.7;"/><text fill="#000000" font-family="sans-serif" font-size="9.1" lengthAdjust="spacing" textLength="114.8075" x="263.2267" y="196.5079">selectParserType(userInput)</text></g><g class="message" data-participant-1="Parser" data-participant-2="Parser"><line style="stroke:#181818;stroke-width:0.7;stroke-dasharray:1.4,1.4;" x1="258.3267" x2="287.7267" y1="226.0918" y2="226.0918"/><line style="stroke:#181818;stroke-width:0.7;stroke-dasharray:1.4,1.4;" x1="287.7267" x2="287.7267" y1="226.0918" y2="235.1918"/><line style="stroke:#181818;stroke-width:0.7;stroke-dasharray:1.4,1.4;" x1="254.8267" x2="287.7267" y1="235.1918" y2="235.1918"/><polygon fill="#181818" points="261.8267,232.3918,254.8267,235.1918,261.8267,237.9918,259.0267,235.1918" style="stroke:#181818;stroke-width:0.7;"/></g><g class="message" data-participant-1="Parser" data-participant-2="ClientParser"><polygon fill="#181818" points="418.4865,250.7955,425.4865,253.5955,418.4865,256.3955,421.2865,253.5955" style="stroke:#181818;stroke-width:0.7;"/><line style="stroke:#181818;stroke-width:0.7;" x1="254.8267" x2="422.6865" y1="253.5955" y2="253.5955"/><text fill="#000000" font-family="sans-serif" font-size="9.1" lengthAdjust="spacing" textLength="155.2599" x="259.7267" y="249.9116">create(commandType, commandArgs)</text></g><rect fill="#E2E2F0" height="22.8348" rx="1.75" ry="1.75" style="stroke:#181818;stroke-width:0.35;" width="66.4419" x="426.8865" y="237.2918"/><text fill="#000000" font-family="sans-serif" font-size="9.8" lengthAdjust="spacing" textLength="56.6419" x="431.7865" y="252.767">:ClientParser</text><path d="M466.9,271.3266 L466.9,302.1266 L669.2,302.1266 L669.2,278.3266 L662.2,271.3266 L466.9,271.3266" fill="#FEFFDD" style="stroke:#181818;stroke-width:0.35;"/><path d="M662.2,271.3266 L662.2,278.3266 L669.2,278.3266 L662.2,271.3266" fill="#FEFFDD" style="stroke:#181818;stroke-width:0.35;"/><text fill="#000000" font-family="sans-serif" font-size="9.1" lengthAdjust="spacing" textLength="187.6431" x="471.1" y="284.6464">The constructor splits the commandArgs into a</text><text fill="#000000" font-family="sans-serif" font-size="9.1" lengthAdjust="spacing" textLength="165.2796" x="471.1" y="296.7501">sub-command ("add") and its arguments.</text><g class="message" data-participant-1="ClientParser" data-participant-2="Command"><polygon fill="#181818" points="586.304,319.5377,593.304,322.3377,586.304,325.1377,589.104,322.3377" style="stroke:#181818;stroke-width:0.7;"/><line style="stroke:#181818;stroke-width:0.7;" x1="463.6075" x2="590.504" y1="322.3377" y2="322.3377"/><text fill="#000000" font-family="sans-serif" font-size="9.1" lengthAdjust="spacing" textLength="114.2965" x="468.5075" y="318.6538">create(commandType, args)</text></g><rect fill="#E2E2F0" height="22.8348" rx="1.75" ry="1.75" style="stroke:#181818;stroke-width:0.35;" width="75.1652" x="594.704" y="306.034"/><text fill="#000000" font-family="sans-serif" font-size="9.8" lengthAdjust="spacing" textLength="65.3652" x="599.604" y="321.5092">:AddCommand</text><path d="M485.1,340.0687 L485.1,370.8687 L625.1,370.8687 L625.1,347.0687 L618.1,340.0687 L485.1,340.0687" fill="#FEFFDD" style="stroke:#181818;stroke-width:0.35;"/><path d="M618.1,340.0687 L618.1,347.0687 L625.1,347.0687 L618.1,340.0687" fill="#FEFFDD" style="stroke:#181818;stroke-width:0.35;"/><text fill="#000000" font-family="sans-serif" font-size="9.1" lengthAdjust="spacing" textLength="112.7991" x="489.3" y="353.3886">A new AddCommand object</text><text fill="#000000" font-family="sans-serif" font-size="9.1" lengthAdjust="spacing" textLength="125.4316" x="489.3" y="365.4923">is instantiated. Details Omitted.</text><g class="message" data-participant-1="Command" data-participant-2="ClientParser"><polygon fill="#181818" points="471.3075,376.1762,464.3075,378.9762,471.3075,381.7762,468.5075,378.9762" style="stroke:#181818;stroke-width:0.7;"/><line style="stroke:#181818;stroke-width:0.7;stroke-dasharray:1.4,1.4;" x1="467.1075" x2="631.5866" y1="378.9762" y2="378.9762"/></g><g class="message" data-participant-1="ClientParser" data-participant-2="Parser"><polygon fill="#181818" points="262.5267,398.0799,255.5267,400.8799,262.5267,403.6799,259.7267,400.8799" style="stroke:#181818;stroke-width:0.7;"/><line style="stroke:#181818;stroke-width:0.7;stroke-dasharray:1.4,1.4;" x1="258.3267" x2="459.4075" y1="400.8799" y2="400.8799"/><text fill="#000000" font-family="sans-serif" font-size="9.1" lengthAdjust="spacing" textLength="84.4683" x="266.7267" y="397.196">return AddCommand</text></g><g class="message" data-participant-1="Parser" data-participant-2="UI"><polygon fill="#181818" points="154.2584,419.9836,147.2584,422.7836,154.2584,425.5836,151.4584,422.7836" style="stroke:#181818;stroke-width:0.7;"/><line style="stroke:#181818;stroke-width:0.7;stroke-dasharray:1.4,1.4;" x1="150.0584" x2="250.6267" y1="422.7836" y2="422.7836"/><text fill="#000000" font-family="sans-serif" font-size="9.1" lengthAdjust="spacing" textLength="84.4683" x="158.4584" y="419.0997">return AddCommand</text></g><path d="M149.8,431.8836 L149.8,462.6836 L352.8,462.6836 L352.8,438.8836 L345.8,431.8836 L149.8,431.8836" fill="#FEFFDD" style="stroke:#181818;stroke-width:0.35;"/><path d="M345.8,431.8836 L345.8,438.8836 L352.8,438.8836 L345.8,431.8836" fill="#FEFFDD" style="stroke:#181818;stroke-width:0.35;"/><text fill="#000000" font-family="sans-serif" font-size="9.1" lengthAdjust="spacing" textLength="188.6606" x="154" y="445.2034">The UI now holds a fully formed AddCommand</text><text fill="#000000" font-family="sans-serif" font-size="9.1" lengthAdjust="spacing" textLength="109.2622" x="154" y="457.3071">object, ready for execution.</text><g class="message" data-participant-1="UI" data-participant-2="User"><polygon fill="#181818" points="50.6099,467.991,43.6099,470.791,50.6099,473.591,47.8099,470.791" style="stroke:#181818;stroke-width:0.7;"/><line style="stroke:#181818;stroke-width:0.7;stroke-dasharray:1.4,1.4;" x1="46.4099" x2="142.3584" y1="470.791" y2="470.791"/></g><!--SRC=[VLFBRjim4BppAmOwEK6i3z2XW96WW4yjaFYM2qEkPHOKgP9K7d_VfIZ7jDhc96ftPdTsk4mcMS8Z_Px8ASA3aNsGGuTxFmpIQVoK8HhN2o5LyW7DT-EaKqPQxFIhYJuqa167I46CCYIZp2XTmc6Vmqrts3TNyLoEGicLytN-tXfogKRLaHLsaJZ3Tbel_uqGMGwstrX51oPJO8IQwq1gZRPjcpoFUPM96CI4VOQN9Xt6_DrCVDwxSKet5sn12E4y_mJJdnByyHm5daw4I9RKelVfOoGCb4vUSzP4A6ajQIGFJInhC8wGcAHy2CnYK9nUjcCPdr6ieHN4C-Q6Oh6bKhfkzfNeC_kJBZJzDTYbHUtxxMq75OY16rLCpitkiFpiGX-hVZLpvLITwcQxb7SnXMbUhZXQa-9Yo6Tb6CTEo6UNhLdYs3HyaSqDyZbpPEYdWKl7LeYh7SgJ5Cx_Xf0hzILNX5iw5jqbs647Hs-uB1lyoo- -0JmxauN6n8jfk8nkyK196XlnOp0f1yIPibsvMz_3kVjgYEhA0wKfk4h25RqkMv7pG_YI-E_5vgTHbfhVX_DlE7chsMiS9si_SFHXu6Mk2cAnuuwRIJqZGE-afcIygnPvVczPrcfwxlS7]--></g></svg>