<svg xmlns="http://www.w3.org/2000/svg" xmlns:xlink="http://www.w3.org/1999/xlink" contentStyleType="text/css" data-diagram-type="CLASS" height="688px" preserveAspectRatio="none" style="width:1370px;height:688px;background:#FFFFFF;" version="1.1" viewBox="0 0 1370 688" width="1370px" zoomAndPan="magnify"><title>High-Level View: Client Management Component</title><defs/><g><g class="title" data-source-line="1"><text fill="#000000" font-family="sans-serif" font-size="14" font-weight="bold" lengthAdjust="spacing" textLength="325.917" x="515.1958" y="25.1074">High-Level View: Client Management Component</text></g><!--cluster seedu--><g class="cluster" data-entity="seedu" data-source-line="8" data-uid="ent0004" id="cluster_seedu"><path d="M8.5,45.6348 L49.9619,45.6348 A3.75,3.75 0 0 1 52.4619,48.1348 L59.4619,70.2559 L884.5,70.2559 A2.5,2.5 0 0 1 887,72.7559 L887,679.1348 A2.5,2.5 0 0 1 884.5,681.6348 L8.5,681.6348 A2.5,2.5 0 0 1 6,679.1348 L6,48.1348 A2.5,2.5 0 0 1 8.5,45.6348" fill="none" style="stroke:#000000;stroke-width:1.5;"/><line style="stroke:#000000;stroke-width:1.5;" x1="6" x2="59.4619" y1="70.2559" y2="70.2559"/><text fill="#000000" font-family="sans-serif" font-size="14" font-weight="bold" lengthAdjust="spacing" textLength="40.4619" x="10" y="62.7422">seedu</text></g><!--cluster duke--><g class="cluster" data-entity="duke" data-source-line="8" data-uid="ent0005" id="cluster_duke"><path d="M32.5,90.6348 L66.1758,90.6348 A3.75,3.75 0 0 1 68.6758,93.1348 L75.6758,115.2559 L860.5,115.2559 A2.5,2.5 0 0 1 863,117.7559 L863,655.1348 A2.5,2.5 0 0 1 860.5,657.6348 L32.5,657.6348 A2.5,2.5 0 0 1 30,655.1348 L30,93.1348 A2.5,2.5 0 0 1 32.5,90.6348" fill="none" style="stroke:#000000;stroke-width:1.5;"/><line style="stroke:#000000;stroke-width:1.5;" x1="30" x2="75.6758" y1="115.2559" y2="115.2559"/><text fill="#000000" font-family="sans-serif" font-size="14" font-weight="bold" lengthAdjust="spacing" textLength="32.6758" x="34" y="107.7422">duke</text></g><!--cluster container--><g class="cluster" data-entity="container" data-source-line="7" data-uid="ent0002" id="cluster_container"><path d="M701.5,319.6348 L765.5137,319.6348 A3.75,3.75 0 0 1 768.0137,322.1348 L775.0137,344.2559 L836.5,344.2559 A2.5,2.5 0 0 1 839,346.7559 L839,486.1348 A2.5,2.5 0 0 1 836.5,488.6348 L701.5,488.6348 A2.5,2.5 0 0 1 699,486.1348 L699,322.1348 A2.5,2.5 0 0 1 701.5,319.6348" fill="none" style="stroke:#000000;stroke-width:1.5;"/><line style="stroke:#000000;stroke-width:1.5;" x1="699" x2="775.0137" y1="344.2559" y2="344.2559"/><text fill="#000000" font-family="sans-serif" font-size="14" font-weight="bold" lengthAdjust="spacing" textLength="63.0137" x="703" y="336.7422">container</text></g><!--cluster client--><g class="cluster" data-entity="client" data-source-line="15" data-uid="ent0006" id="cluster_client"><path d="M56.5,135.6348 L94.0654,135.6348 A3.75,3.75 0 0 1 96.5654,138.1348 L103.5654,160.2559 L672.5,160.2559 A2.5,2.5 0 0 1 675,162.7559 L675,631.1348 A2.5,2.5 0 0 1 672.5,633.6348 L56.5,633.6348 A2.5,2.5 0 0 1 54,631.1348 L54,138.1348 A2.5,2.5 0 0 1 56.5,135.6348" fill="none" style="stroke:#000000;stroke-width:1.5;"/><line style="stroke:#000000;stroke-width:1.5;" x1="54" x2="103.5654" y1="160.2559" y2="160.2559"/><text fill="#000000" font-family="sans-serif" font-size="14" font-weight="bold" lengthAdjust="spacing" textLength="36.5654" x="58" y="152.7422">client</text></g><!--class ListContainer--><g class="entity" data-entity="ListContainer" data-source-line="8" data-uid="ent0003" id="entity_ListContainer"><rect fill="#F1F1F1" height="116.4453" rx="2.5" ry="2.5" style="stroke:#181818;stroke-width:0.5;" width="106.541" x="715.5" y="356.6348"/><text fill="#000000" font-family="sans-serif" font-size="12" font-style="italic" lengthAdjust="spacing" textLength="59.373" x="739.084" y="374.584">&#171;interface&#187;</text><text fill="#000000" font-family="sans-serif" font-size="14" font-style="italic" lengthAdjust="spacing" textLength="82.4893" x="727.5259" y="392.7031">ListContainer</text><line style="stroke:#181818;stroke-width:0.5;" x1="716.5" x2="821.041" y1="401.2168" y2="401.2168"/><line style="stroke:#181818;stroke-width:0.5;" x1="716.5" x2="821.041" y1="409.2168" y2="409.2168"/><text fill="#000000" font-family="sans-serif" font-size="14" lengthAdjust="spacing" textLength="79.7549" x="721.5" y="428.3242">+addItem(...)</text><text fill="#000000" font-family="sans-serif" font-size="14" lengthAdjust="spacing" textLength="94.541" x="721.5" y="446.9453">+deleteItem(...)</text><text fill="#000000" font-family="sans-serif" font-size="14" lengthAdjust="spacing" textLength="68.8379" x="721.5" y="465.5664">+listItems()</text></g><!--class ClientList--><g class="entity" data-entity="ClientList" data-source-line="16" data-uid="ent0007" id="entity_ClientList"><rect fill="#F1F1F1" height="81.8633" rx="2.5" ry="2.5" style="stroke:#181818;stroke-width:0.5;" width="346.209" x="70" y="172.6348"/><text fill="#000000" font-family="sans-serif" font-size="14" lengthAdjust="spacing" textLength="57.5791" x="214.3149" y="192.7422">ClientList</text><line style="stroke:#181818;stroke-width:0.5;" x1="71" x2="415.209" y1="201.2559" y2="201.2559"/><line style="stroke:#181818;stroke-width:0.5;" x1="71" x2="415.209" y1="209.2559" y2="209.2559"/><text fill="#000000" font-family="sans-serif" font-size="14" lengthAdjust="spacing" textLength="334.209" x="76" y="228.3633">+addItem(arguments: String, policyList: ListContainer)</text><text fill="#000000" font-family="sans-serif" font-size="14" lengthAdjust="spacing" textLength="227.5684" x="76" y="246.9844">+findClientByNric(nric: String): Client</text></g><!--class ArchivedClientList--><g class="entity" data-entity="ArchivedClientList" data-source-line="21" data-uid="ent0008" id="entity_ArchivedClientList"><rect fill="#F1F1F1" height="81.8633" rx="2.5" ry="2.5" style="stroke:#181818;stroke-width:0.5;" width="208.4717" x="451" y="172.6348"/><text fill="#000000" font-family="sans-serif" font-size="14" lengthAdjust="spacing" textLength="112.0479" x="499.2119" y="192.7422">ArchivedClientList</text><line style="stroke:#181818;stroke-width:0.5;" x1="452" x2="658.4717" y1="201.2559" y2="201.2559"/><line style="stroke:#181818;stroke-width:0.5;" x1="452" x2="658.4717" y1="209.2559" y2="209.2559"/><text fill="#000000" font-family="sans-serif" font-size="14" lengthAdjust="spacing" textLength="174.6787" x="457" y="228.3633">+archiveClient(client: Client)</text><text fill="#000000" font-family="sans-serif" font-size="14" lengthAdjust="spacing" textLength="196.4717" x="457" y="246.9844">+restoreClient(index: int): Client</text></g><!--class Client--><g class="entity" data-entity="Client" data-source-line="26" data-uid="ent0009" id="entity_Client"><rect fill="#F1F1F1" height="81.8633" rx="2.5" ry="2.5" style="stroke:#181818;stroke-width:0.5;" width="96.0342" x="517" y="535.6348"/><text fill="#000000" font-family="sans-serif" font-size="14" lengthAdjust="spacing" textLength="35.793" x="547.1206" y="555.7422">Client</text><line style="stroke:#181818;stroke-width:0.5;" x1="518" x2="612.0342" y1="564.2559" y2="564.2559"/><text fill="#000000" font-family="sans-serif" font-size="14" lengthAdjust="spacing" textLength="84.0342" x="523" y="583.3633">-name: String</text><text fill="#000000" font-family="sans-serif" font-size="14" lengthAdjust="spacing" textLength="71.5723" x="523" y="601.9844">-nric: String</text><line style="stroke:#181818;stroke-width:0.5;" x1="518" x2="612.0342" y1="609.498" y2="609.498"/></g><ellipse cx="545" cy="414.6348" fill="#181818" rx="2" ry="2" style="stroke:#181818;stroke-width:1;"/><ellipse cx="584" cy="414.6348" fill="#181818" rx="2" ry="2" style="stroke:#181818;stroke-width:1;"/><g class="entity" data-entity="N1" data-source-line="41" data-uid="ent0014" id="entity_N1"><path d="M903,401.1348 L903,428.4258 L1363.3086,428.4258 L1363.3086,411.1348 L1353.3086,401.1348 L903,401.1348" fill="#FEFFDD" style="stroke:#181818;stroke-width:0.5;"/><path d="M1353.3086,401.1348 L1353.3086,411.1348 L1363.3086,411.1348 L1353.3086,401.1348" fill="#FEFFDD" style="stroke:#181818;stroke-width:1;"/><text fill="#000000" font-family="sans-serif" font-size="13" lengthAdjust="spacing" textLength="439.3086" x="909" y="420.1631">A Client object is MOVED between these two lists during archiving/restoring.</text></g><!--link ClientList to ListContainer--><g class="link" data-entity-1="ClientList" data-entity-2="ListContainer" data-source-line="33" data-uid="lnk10" id="link_ClientList_ListContainer"><path codeLine="33" d="M416.2,251.6348 C422.2,252.6848 428.15,253.6848 434,254.6348 C491.85,263.9848 647.14,252.2748 696,284.6348 C721.42,301.4748 731.7085,313.8857 743.2085,340.0557" fill="none" id="ClientList-to-ListContainer" style="stroke:#181818;stroke-width:1;stroke-dasharray:7,7;"/><polygon fill="none" points="750.45,356.5348,748.7015,337.6418,737.7155,342.4695,750.45,356.5348" style="stroke:#181818;stroke-width:1;"/></g><!--link ArchivedClientList to ListContainer--><g class="link" data-entity-1="ArchivedClientList" data-entity-2="ListContainer" data-source-line="34" data-uid="lnk11" id="link_ArchivedClientList_ListContainer"><path codeLine="34" d="M659.09,242.7848 C682.11,252.9448 704.75,266.5448 722,284.6348 C740.67,304.2148 747.1922,314.4443 754.0522,339.0843" fill="none" id="ArchivedClientList-to-ListContainer" style="stroke:#181818;stroke-width:1;stroke-dasharray:7,7;"/><polygon fill="none" points="758.88,356.4248,759.8324,337.475,748.2721,340.6935,758.88,356.4248" style="stroke:#181818;stroke-width:1;"/></g><!--reverse link ClientList to apoint15--><g class="link" data-entity-1="ClientList" data-entity-2="apoint15" data-source-line="42" data-uid="lnk17" id="link_ClientList_apoint15"><path d="M313.7705,261.267 C397.1405,316.197 528.45,402.7348 543.66,412.7548" fill="none" id="ClientList-backto-apoint15" style="stroke:#181818;stroke-width:1;"/><polygon fill="#181818" points="303.75,254.6648,306.5595,261.306,313.7705,261.267,310.961,254.6257,303.75,254.6648" style="stroke:#181818;stroke-width:1;"/><polygon fill="#000000" points="385.175,297.0315,379.2394,289.6005,376.0052,294.5085,385.175,297.0315" style="stroke:#000000;stroke-width:1;"/><text fill="#000000" font-family="sans-serif" font-size="13" lengthAdjust="spacing" textLength="91.0508" x="390" y="299.6631">manages active</text><text fill="#000000" font-family="sans-serif" font-size="13" lengthAdjust="spacing" textLength="7.23" x="305.8759" y="276.621">1</text></g><!--link apoint15 to Client--><g class="link" data-entity-1="apoint15" data-entity-2="Client" data-source-line="42" data-uid="lnk18" id="link_apoint15_Client"><path d="M545.13,416.6548 C546.25,425.5948 554.45,491.2748 559.97,535.3648" fill="none" id="apoint15-Client" style="stroke:#181818;stroke-width:1;"/><text fill="#000000" font-family="sans-serif" font-size="13" lengthAdjust="spacing" textLength="19.5127" x="538.6924" y="524.4951">0..*</text></g><!--link apoint15 to N1--><g class="link" data-entity-1="apoint15" data-entity-2="N1" data-source-line="42" data-uid="lnk19" id="link_apoint15_N1"><path d="M544.71,412.4848 C542.84,397.6648 534.02,310.2548 582.5,283.1348 C675.2,231.2748 717.39,262.0648 821.5,283.1348 C935.42,306.1948 1059.46,372.2448 1109.82,400.9948" fill="none" id="apoint15-N1" style="stroke:#181818;stroke-width:1;stroke-dasharray:7,7;"/></g><!--reverse link ArchivedClientList to apoint20--><g class="link" data-entity-1="ArchivedClientList" data-entity-2="apoint20" data-source-line="43" data-uid="lnk22" id="link_ArchivedClientList_apoint20"><path d="M562.5997,266.7795 C570.5397,321.2895 582.19,401.2248 583.83,412.4948" fill="none" id="ArchivedClientList-backto-apoint20" style="stroke:#181818;stroke-width:1;"/><polygon fill="#181818" points="560.87,254.9048,557.7766,261.4187,562.5997,266.7795,565.6931,260.2655,560.87,254.9048" style="stroke:#181818;stroke-width:1;"/><polygon fill="#000000" points="572.7209,299.228,574.325,289.8537,568.5086,290.7012,572.7209,299.228" style="stroke:#000000;stroke-width:1;"/><text fill="#000000" font-family="sans-serif" font-size="13" lengthAdjust="spacing" textLength="106.228" x="581" y="299.6631">manages archived</text><text fill="#000000" font-family="sans-serif" font-size="13" lengthAdjust="spacing" textLength="7.23" x="554.2144" y="276.5869">1</text></g><!--link apoint20 to Client--><g class="link" data-entity-1="apoint20" data-entity-2="Client" data-source-line="43" data-uid="lnk23" id="link_apoint20_Client"><path d="M583.88,416.6548 C582.82,425.5948 575.02,491.2748 569.78,535.3648" fill="none" id="apoint20-Client" style="stroke:#181818;stroke-width:1;"/><text fill="#000000" font-family="sans-serif" font-size="13" lengthAdjust="spacing" textLength="19.5127" x="572.094" y="524.4951">0..*</text></g><!--link apoint20 to N1--><g class="link" data-entity-1="apoint20" data-entity-2="N1" data-source-line="43" data-uid="lnk24" id="link_apoint20_N1"><path d="M585,412.8848 C592.84,399.4448 645.78,312.2748 716.5,283.1348 C867.59,220.8848 1059.45,356.6248 1116.37,401.1248" fill="none" id="apoint20-N1" style="stroke:#181818;stroke-width:1;stroke-dasharray:7,7;"/></g><!--SRC=[XLB1Rjim3BthAmYVtAxHsgjH1CYo0IlGTeS0lIiIct2n9KEYcsLR_trIRAVAvcqws0Jv-FZu92Qk4JxJPZkxnnUiuObmNy6o9hGC3ygg3JOfNBgcTJP6GeGTsLPvrO2kLGWBPa_hZl5EExkYxmZNOai6GPFNDMPmiep-MMbSnJywFhG8nIbP2D4glOi38I2QJffkXp9oiYAB7du8YES4XtiAl3nLRszFbVbymARp3fGnTunDAQMyoD86QuoQ9ofr94xvKFRPL_4wBQqtgPzrj6BmBIcRbA3yfajkXWfMqJIxkOBMrQGFgQCwtoXNz4pMzDGV3e-UT6dZP-Iu6Azh49l9MNYzfHSqVvFLb_jgsQypakNZFGPsViH5BVYjIXVnZydBt9jqPc1LWwFcF9sjycQto2HB-ND-xesOM6m2TSPIt1HmEPj1SItbPJ4AhA0vll40IdDaXFaKztzxXvROBOHr79_rOaIvzLVK31JWuSlJfu-mHjuZMk0j1WJUk-Dx2s2wvC105QFtlUinaWMe08ytedoJT3LUKzpxMFfJzU-GNm00]--></g></svg>